<svg width="150" height="150" viewBox="0 0 150 150" fill="none" xmlns="http://www.w3.org/2000/svg">
<g id="Group 4">
<circle id="Ellipse 1" cx="2.08346" cy="2.08346" r="2.08346" fill="#B6B6B6"/>
<circle id="Ellipse 51" cx="2.08346" cy="83.1018" r="2.08346" fill="#B6B6B6"/>
<circle id="Ellipse 26" cx="83.1018" cy="2.08346" r="2.08346" fill="#B6B6B6"/>
<circle id="Ellipse 52" cx="83.1018" cy="83.1018" r="2.08346" fill="#B6B6B6"/>
<circle id="Ellipse 6" cx="2.08346" cy="18.2871" r="2.08346" fill="#B6B6B6"/>
<circle id="Ellipse 53" cx="2.08346" cy="99.3054" r="2.08346" fill="#B6B6B6"/>
<circle id="Ellipse 27" cx="83.1018" cy="18.2871" r="2.08346" fill="#B6B6B6"/>
<circle id="Ellipse 54" cx="83.1018" cy="99.3054" r="2.08346" fill="#B6B6B6"/>
<circle id="Ellipse 11" cx="2.08346" cy="34.4907" r="2.08346" fill="#B6B6B6"/>
<circle id="Ellipse 55" cx="2.08346" cy="115.509" r="2.08346" fill="#B6B6B6"/>
<circle id="Ellipse 28" cx="83.1018" cy="34.4907" r="2.08346" fill="#B6B6B6"/>
<circle id="Ellipse 56" cx="83.1018" cy="115.509" r="2.08346" fill="#B6B6B6"/>
<circle id="Ellipse 16" cx="2.08346" cy="50.6945" r="2.08346" fill="#B6B6B6"/>
<circle id="Ellipse 57" cx="2.08346" cy="131.713" r="2.08346" fill="#B6B6B6"/>
<circle id="Ellipse 29" cx="83.1018" cy="50.6945" r="2.08346" fill="#B6B6B6"/>
<circle id="Ellipse 58" cx="83.1018" cy="131.713" r="2.08346" fill="#B6B6B6"/>
<circle id="Ellipse 21" cx="2.08346" cy="66.8982" r="2.08346" fill="#B6B6B6"/>
<circle id="Ellipse 59" cx="2.08346" cy="147.916" r="2.08346" fill="#B6B6B6"/>
<circle id="Ellipse 30" cx="83.1018" cy="66.8982" r="2.08346" fill="#B6B6B6"/>
<circle id="Ellipse 60" cx="83.1018" cy="147.916" r="2.08346" fill="#B6B6B6"/>
<circle id="Ellipse 2" cx="18.2871" cy="2.08346" r="2.08346" fill="#B6B6B6"/>
<circle id="Ellipse 61" cx="18.2871" cy="83.1018" r="2.08346" fill="#B6B6B6"/>
<circle id="Ellipse 31" cx="99.3054" cy="2.08346" r="2.08346" fill="#B6B6B6"/>
<circle id="Ellipse 62" cx="99.3054" cy="83.1018" r="2.08346" fill="#B6B6B6"/>
<circle id="Ellipse 7" cx="18.2871" cy="18.2871" r="2.08346" fill="#B6B6B6"/>
<circle id="Ellipse 63" cx="18.2871" cy="99.3054" r="2.08346" fill="#B6B6B6"/>
<circle id="Ellipse 32" cx="99.3054" cy="18.2871" r="2.08346" fill="#B6B6B6"/>
<circle id="Ellipse 64" cx="99.3054" cy="99.3054" r="2.08346" fill="#B6B6B6"/>
<circle id="Ellipse 12" cx="18.2871" cy="34.4907" r="2.08346" fill="#B6B6B6"/>
<circle id="Ellipse 65" cx="18.2871" cy="115.509" r="2.08346" fill="#B6B6B6"/>
<circle id="Ellipse 33" cx="99.3054" cy="34.4907" r="2.08346" fill="#B6B6B6"/>
<circle id="Ellipse 66" cx="99.3054" cy="115.509" r="2.08346" fill="#B6B6B6"/>
<circle id="Ellipse 17" cx="18.2871" cy="50.6945" r="2.08346" fill="#B6B6B6"/>
<circle id="Ellipse 67" cx="18.2871" cy="131.713" r="2.08346" fill="#B6B6B6"/>
<circle id="Ellipse 34" cx="99.3054" cy="50.6945" r="2.08346" fill="#B6B6B6"/>
<circle id="Ellipse 68" cx="99.3054" cy="131.713" r="2.08346" fill="#B6B6B6"/>
<circle id="Ellipse 22" cx="18.2871" cy="66.8982" r="2.08346" fill="#B6B6B6"/>
<circle id="Ellipse 69" cx="18.2871" cy="147.916" r="2.08346" fill="#B6B6B6"/>
<circle id="Ellipse 35" cx="99.3054" cy="66.8982" r="2.08346" fill="#B6B6B6"/>
<circle id="Ellipse 70" cx="99.3054" cy="147.916" r="2.08346" fill="#B6B6B6"/>
<circle id="Ellipse 3" cx="34.4908" cy="2.08346" r="2.08346" fill="#B6B6B6"/>
<circle id="Ellipse 71" cx="34.4908" cy="83.1018" r="2.08346" fill="#B6B6B6"/>
<circle id="Ellipse 36" cx="115.509" cy="2.08346" r="2.08346" fill="#B6B6B6"/>
<circle id="Ellipse 72" cx="115.509" cy="83.1018" r="2.08346" fill="#B6B6B6"/>
<circle id="Ellipse 8" cx="34.4908" cy="18.2871" r="2.08346" fill="#B6B6B6"/>
<circle id="Ellipse 73" cx="34.4908" cy="99.3054" r="2.08346" fill="#B6B6B6"/>
<circle id="Ellipse 37" cx="115.509" cy="18.2871" r="2.08346" fill="#B6B6B6"/>
<circle id="Ellipse 74" cx="115.509" cy="99.3054" r="2.08346" fill="#B6B6B6"/>
<circle id="Ellipse 13" cx="34.4908" cy="34.4907" r="2.08346" fill="#B6B6B6"/>
<circle id="Ellipse 75" cx="34.4908" cy="115.509" r="2.08346" fill="#B6B6B6"/>
<circle id="Ellipse 38" cx="115.509" cy="34.4907" r="2.08346" fill="#B6B6B6"/>
<circle id="Ellipse 76" cx="115.509" cy="115.509" r="2.08346" fill="#B6B6B6"/>
<circle id="Ellipse 18" cx="34.4908" cy="50.6945" r="2.08346" fill="#B6B6B6"/>
<circle id="Ellipse 77" cx="34.4908" cy="131.713" r="2.08346" fill="#B6B6B6"/>
<circle id="Ellipse 39" cx="115.509" cy="50.6945" r="2.08346" fill="#B6B6B6"/>
<circle id="Ellipse 78" cx="115.509" cy="131.713" r="2.08346" fill="#B6B6B6"/>
<circle id="Ellipse 23" cx="34.4908" cy="66.8982" r="2.08346" fill="#B6B6B6"/>
<circle id="Ellipse 79" cx="34.4908" cy="147.916" r="2.08346" fill="#B6B6B6"/>
<circle id="Ellipse 40" cx="115.509" cy="66.8982" r="2.08346" fill="#B6B6B6"/>
<circle id="Ellipse 80" cx="115.509" cy="147.916" r="2.08346" fill="#B6B6B6"/>
<circle id="Ellipse 4" cx="50.6945" cy="2.08346" r="2.08346" fill="#B6B6B6"/>
<circle id="Ellipse 81" cx="50.6945" cy="83.1018" r="2.08346" fill="#B6B6B6"/>
<circle id="Ellipse 41" cx="131.713" cy="2.08346" r="2.08346" fill="#B6B6B6"/>
<circle id="Ellipse 82" cx="131.713" cy="83.1018" r="2.08346" fill="#B6B6B6"/>
<circle id="Ellipse 9" cx="50.6945" cy="18.2871" r="2.08346" fill="#B6B6B6"/>
<circle id="Ellipse 83" cx="50.6945" cy="99.3054" r="2.08346" fill="#B6B6B6"/>
<circle id="Ellipse 42" cx="131.713" cy="18.2871" r="2.08346" fill="#B6B6B6"/>
<circle id="Ellipse 84" cx="131.713" cy="99.3054" r="2.08346" fill="#B6B6B6"/>
<circle id="Ellipse 14" cx="50.6945" cy="34.4907" r="2.08346" fill="#B6B6B6"/>
<circle id="Ellipse 85" cx="50.6945" cy="115.509" r="2.08346" fill="#B6B6B6"/>
<circle id="Ellipse 43" cx="131.713" cy="34.4907" r="2.08346" fill="#B6B6B6"/>
<circle id="Ellipse 86" cx="131.713" cy="115.509" r="2.08346" fill="#B6B6B6"/>
<circle id="Ellipse 19" cx="50.6945" cy="50.6945" r="2.08346" fill="#B6B6B6"/>
<circle id="Ellipse 87" cx="50.6945" cy="131.713" r="2.08346" fill="#B6B6B6"/>
<circle id="Ellipse 44" cx="131.713" cy="50.6945" r="2.08346" fill="#B6B6B6"/>
<circle id="Ellipse 88" cx="131.713" cy="131.713" r="2.08346" fill="#B6B6B6"/>
<circle id="Ellipse 24" cx="50.6945" cy="66.8982" r="2.08346" fill="#B6B6B6"/>
<circle id="Ellipse 89" cx="50.6945" cy="147.916" r="2.08346" fill="#B6B6B6"/>
<circle id="Ellipse 45" cx="131.713" cy="66.8982" r="2.08346" fill="#B6B6B6"/>
<circle id="Ellipse 90" cx="131.713" cy="147.916" r="2.08346" fill="#B6B6B6"/>
<circle id="Ellipse 5" cx="66.8982" cy="2.08346" r="2.08346" fill="#B6B6B6"/>
<circle id="Ellipse 91" cx="66.8982" cy="83.1018" r="2.08346" fill="#B6B6B6"/>
<circle id="Ellipse 46" cx="147.916" cy="2.08346" r="2.08346" fill="#B6B6B6"/>
<circle id="Ellipse 92" cx="147.916" cy="83.1018" r="2.08346" fill="#B6B6B6"/>
<circle id="Ellipse 10" cx="66.8982" cy="18.2871" r="2.08346" fill="#B6B6B6"/>
<circle id="Ellipse 93" cx="66.8982" cy="99.3054" r="2.08346" fill="#B6B6B6"/>
<circle id="Ellipse 47" cx="147.916" cy="18.2871" r="2.08346" fill="#B6B6B6"/>
<circle id="Ellipse 94" cx="147.916" cy="99.3054" r="2.08346" fill="#B6B6B6"/>
<circle id="Ellipse 15" cx="66.8982" cy="34.4907" r="2.08346" fill="#B6B6B6"/>
<circle id="Ellipse 95" cx="66.8982" cy="115.509" r="2.08346" fill="#B6B6B6"/>
<circle id="Ellipse 48" cx="147.916" cy="34.4907" r="2.08346" fill="#B6B6B6"/>
<circle id="Ellipse 96" cx="147.916" cy="115.509" r="2.08346" fill="#B6B6B6"/>
<circle id="Ellipse 20" cx="66.8982" cy="50.6945" r="2.08346" fill="#B6B6B6"/>
<circle id="Ellipse 97" cx="66.8982" cy="131.713" r="2.08346" fill="#B6B6B6"/>
<circle id="Ellipse 49" cx="147.916" cy="50.6945" r="2.08346" fill="#B6B6B6"/>
<circle id="Ellipse 98" cx="147.916" cy="131.713" r="2.08346" fill="#B6B6B6"/>
<circle id="Ellipse 25" cx="66.8982" cy="66.8982" r="2.08346" fill="#B6B6B6"/>
<circle id="Ellipse 99" cx="66.8982" cy="147.916" r="2.08346" fill="#B6B6B6"/>
<circle id="Ellipse 50" cx="147.916" cy="66.8982" r="2.08346" fill="#B6B6B6"/>
<circle id="Ellipse 100" cx="147.916" cy="147.916" r="2.08346" fill="#B6B6B6"/>
</g>
</svg>
