<svg width="25" height="24" viewBox="0 0 25 24" fill="none" xmlns="http://www.w3.org/2000/svg">
<path d="M21.7616 7.0001C21.5889 6.70072 21.3414 6.45123 21.0435 6.27597C20.7455 6.10071 20.4073 6.00566 20.0616 6.0001H7.26164L6.68164 3.7401C6.62304 3.52194 6.4923 3.33004 6.31072 3.19567C6.12913 3.0613 5.9074 2.99236 5.68164 3.0001H3.68164C3.41642 3.0001 3.16207 3.10545 2.97453 3.29299C2.787 3.48053 2.68164 3.73488 2.68164 4.0001C2.68164 4.26531 2.787 4.51967 2.97453 4.7072C3.16207 4.89474 3.41642 5.0001 3.68164 5.0001H4.92164L7.68164 15.2601C7.74024 15.4783 7.87098 15.6702 8.05256 15.8045C8.23415 15.9389 8.45588 16.0078 8.68164 16.0001H17.6816C17.8663 15.9995 18.0472 15.9479 18.2043 15.8508C18.3614 15.7537 18.4885 15.615 18.5716 15.4501L21.8516 8.8901C21.9938 8.59211 22.06 8.26357 22.0443 7.93378C22.0286 7.604 21.9315 7.28323 21.7616 7.0001Z" fill="white"/>
<path d="M8.18164 21C9.01007 21 9.68164 20.3284 9.68164 19.5C9.68164 18.6716 9.01007 18 8.18164 18C7.35321 18 6.68164 18.6716 6.68164 19.5C6.68164 20.3284 7.35321 21 8.18164 21Z" fill="white"/>
<path d="M18.1816 21C19.0101 21 19.6816 20.3284 19.6816 19.5C19.6816 18.6716 19.0101 18 18.1816 18C17.3532 18 16.6816 18.6716 16.6816 19.5C16.6816 20.3284 17.3532 21 18.1816 21Z" fill="white"/>
</svg>
