<svg width="599" height="355" viewBox="0 0 599 355" fill="none" xmlns="http://www.w3.org/2000/svg">
<path d="M136.053 351.217C136.053 351.217 138.318 341.544 136.902 329.969C135.486 318.235 126.284 300.318 117.365 300.793C108.587 301.428 108.021 312.844 113.401 318.394C118.781 323.944 131.664 336.787 131.381 350.741L136.053 351.217Z" fill="#40C7A7"/>
<path d="M117.082 307.294C122.178 310.941 136.194 325.212 134.07 350.899" stroke="#3B55CE" stroke-width="0.620369" stroke-miterlimit="10" stroke-linecap="round"/>
<path d="M134.071 350.899C134.071 350.265 134.212 339.8 126.851 331.237C119.347 322.516 107.172 320.772 101.367 325.053C95.9874 329.018 96.8369 337.897 106.747 338.214C121.895 338.69 128.691 341.227 131.523 350.741L134.071 350.899Z" fill="#22A482"/>
<path d="M104.199 329.177C111.277 327.591 129.682 329.97 132.938 350.9" stroke="#3B55CE" stroke-width="0.620369" stroke-miterlimit="10" stroke-linecap="round"/>
<path d="M537.84 142.865C533.734 143.975 532.177 145.877 529.345 154.598C526.514 163.319 520.426 182.981 519.718 184.091C519.718 184.091 497.916 181.713 492.394 180.761C489.563 180.286 485.74 180.127 482.343 180.286C480.077 180.444 476.255 180.761 474.556 181.078C470.309 181.871 473.282 185.677 476.68 188.055C481.21 191.226 488.855 188.214 494.376 188.689C500.039 189.165 520.284 195.983 522.974 194.873C525.806 193.605 537.415 166.808 537.415 166.808L537.84 142.865Z" fill="#DD7A79"/>
<path d="M492.395 180.761C489.563 180.286 490.413 179.334 488.289 178.225C486.165 177.115 484.608 177.273 483.051 176.48C481.352 175.687 481.493 177.432 482.626 178.383C483.051 178.859 484.183 179.176 484.608 179.493C485.741 180.127 482.484 180.286 482.484 180.286L492.395 180.761Z" fill="#DD7A79"/>
<path d="M319.816 350.106C319.816 350.106 327.461 331.713 318.4 319.028C309.34 306.501 299.429 311.417 299.429 311.417C299.429 311.417 291.076 282.241 270.123 290.962C249.171 299.683 256.674 321.247 256.674 321.247C256.674 321.247 251.153 319.028 248.038 323.784C244.782 328.541 248.038 333.457 248.038 333.457C248.038 333.457 225.811 335.36 225.811 350.106H319.816Z" fill="#40C7A7"/>
<path opacity="0.55" d="M422.173 25.3691H291.075C287.536 25.3691 284.563 28.5404 284.563 32.663V317.442C284.563 321.406 287.395 324.736 291.075 324.736H422.173C425.712 324.736 428.686 321.565 428.686 317.442V32.663C428.686 28.699 425.712 25.3691 422.173 25.3691Z" fill="#D9E8FF"/>
<path d="M425.146 0H288.244C281.307 0 275.786 6.18396 275.786 13.9535V336.154C275.786 343.923 281.307 350.107 288.244 350.107H425.146C432.083 350.107 437.605 343.923 437.605 336.154V13.9535C437.605 6.18396 432.083 0 425.146 0ZM428.686 317.443C428.686 321.407 425.854 324.737 422.173 324.737H291.076C287.536 324.737 284.563 321.566 284.563 317.443V32.664C284.563 28.6999 287.395 25.3701 291.076 25.3701H422.173C425.713 25.3701 428.686 28.5413 428.686 32.664V317.443Z" fill="#3B55CE"/>
<path d="M288.244 350.106H425.146C432.083 350.106 437.605 343.922 437.605 336.153V13.9528C437.605 10.6229 436.472 7.45169 434.773 5.07324L425.146 26.1621C427.27 27.2721 428.686 29.8091 428.686 32.6632V317.442C428.686 321.406 425.854 324.736 422.173 324.736H291.076C290.084 324.736 289.235 324.419 288.386 324.102L278.617 345.349C281.024 348.204 284.422 350.106 288.244 350.106Z" fill="#032575"/>
<path d="M349.404 17.2831C347.139 17.2831 345.299 15.2218 345.299 12.6847C345.299 10.1477 347.139 8.08643 349.404 8.08643C351.669 8.08643 353.51 10.1477 353.51 12.6847C353.651 15.2218 351.811 17.2831 349.404 17.2831Z" fill="#000E5B"/>
<path d="M382.108 12.6852C382.108 11.0996 380.975 9.83105 379.559 9.83105H362.995C361.58 9.83105 360.447 11.0996 360.447 12.6852C360.447 14.2708 361.58 15.5393 362.995 15.5393H379.559C380.975 15.5393 382.108 14.2708 382.108 12.6852Z" fill="#000E5B"/>
<path d="M376.444 144.609H303.534C302.118 144.609 300.985 143.341 300.985 141.755V60.0951C300.985 58.5095 302.118 57.241 303.534 57.241H376.444C377.86 57.241 378.993 58.5095 378.993 60.0951V141.755C378.993 143.341 377.86 144.609 376.444 144.609Z" fill="#85B8ED"/>
<path d="M373.616 141.437H300.705C299.289 141.437 298.157 140.168 298.157 138.583V56.9227C298.157 55.3371 299.289 54.0686 300.705 54.0686H373.616C375.031 54.0686 376.164 55.3371 376.164 56.9227V138.583C376.164 140.168 375.031 141.437 373.616 141.437Z" fill="#FFFFF8"/>
<path d="M300.44 158.638C300.222 158.618 300.018 158.584 299.827 158.536C299.644 158.482 299.474 158.424 299.317 158.362C299.167 158.301 299.035 158.243 298.919 158.189C298.81 158.128 298.729 158.08 298.674 158.046L299.113 157.148C299.161 157.182 299.242 157.23 299.358 157.291C299.474 157.352 299.603 157.417 299.746 157.485C299.895 157.546 300.048 157.601 300.205 157.648C300.361 157.696 300.508 157.72 300.644 157.72C301.324 157.72 301.664 157.437 301.664 156.873C301.664 156.737 301.64 156.624 301.593 156.536C301.552 156.447 301.487 156.373 301.399 156.311C301.317 156.243 301.215 156.186 301.093 156.138C300.977 156.083 300.844 156.029 300.695 155.975C300.409 155.866 300.154 155.754 299.929 155.638C299.712 155.515 299.525 155.379 299.368 155.23C299.212 155.08 299.093 154.91 299.011 154.72C298.929 154.529 298.889 154.311 298.889 154.066C298.889 153.876 298.926 153.692 299.001 153.515C299.076 153.339 299.181 153.182 299.317 153.046C299.453 152.903 299.616 152.784 299.807 152.689C299.997 152.587 300.208 152.515 300.44 152.475V151.668H301.276V152.454C301.453 152.475 301.623 152.505 301.787 152.546C301.95 152.587 302.096 152.631 302.225 152.679C302.355 152.726 302.463 152.774 302.552 152.821C302.647 152.862 302.715 152.893 302.756 152.913L302.348 153.75C302.293 153.723 302.215 153.689 302.113 153.648C302.018 153.6 301.909 153.553 301.787 153.505C301.664 153.458 301.531 153.417 301.389 153.383C301.246 153.349 301.103 153.332 300.96 153.332C300.729 153.332 300.521 153.379 300.338 153.475C300.161 153.563 300.072 153.716 300.072 153.934C300.072 154.07 300.096 154.192 300.144 154.301C300.198 154.403 300.273 154.495 300.368 154.577C300.47 154.658 300.593 154.737 300.736 154.811C300.885 154.879 301.055 154.947 301.246 155.015C301.497 155.117 301.722 155.223 301.919 155.332C302.117 155.441 302.283 155.563 302.419 155.699C302.555 155.835 302.657 155.992 302.725 156.169C302.8 156.345 302.838 156.553 302.838 156.791C302.838 156.995 302.804 157.192 302.736 157.383C302.674 157.573 302.576 157.75 302.44 157.913C302.31 158.077 302.147 158.22 301.95 158.342C301.759 158.458 301.535 158.543 301.276 158.597V159.597H300.44V158.638ZM304.119 155.464L304.466 152.25H307.813L307.65 153.179H305.486L305.272 154.822C305.326 154.788 305.432 154.747 305.588 154.699C305.745 154.651 305.983 154.628 306.303 154.628C306.588 154.628 306.843 154.682 307.068 154.791C307.299 154.893 307.493 155.036 307.65 155.22C307.813 155.403 307.935 155.617 308.017 155.862C308.105 156.107 308.15 156.369 308.15 156.648C308.15 156.913 308.112 157.179 308.037 157.444C307.962 157.703 307.84 157.934 307.67 158.138C307.5 158.342 307.279 158.509 307.007 158.638C306.741 158.76 306.415 158.822 306.027 158.822C305.666 158.822 305.309 158.771 304.956 158.669C304.609 158.567 304.262 158.437 303.915 158.281L304.262 157.434C304.575 157.57 304.847 157.686 305.078 157.781C305.316 157.876 305.558 157.924 305.803 157.924C306.197 157.924 306.476 157.818 306.639 157.607C306.809 157.39 306.894 157.067 306.894 156.638C306.894 156.277 306.799 156.005 306.609 155.822C306.425 155.631 306.18 155.536 305.874 155.536C305.67 155.536 305.493 155.549 305.343 155.577C305.194 155.604 305.064 155.635 304.956 155.669C304.854 155.703 304.772 155.737 304.711 155.771C304.656 155.798 304.619 155.815 304.598 155.822L304.119 155.464ZM310.035 157.322C310.273 157.322 310.454 157.393 310.576 157.536C310.705 157.679 310.77 157.862 310.77 158.087C310.77 158.305 310.705 158.488 310.576 158.638C310.447 158.788 310.256 158.862 310.005 158.862C309.766 158.862 309.583 158.788 309.454 158.638C309.324 158.488 309.26 158.311 309.26 158.107C309.26 157.89 309.324 157.706 309.454 157.556C309.583 157.4 309.777 157.322 310.035 157.322ZM312.531 157.73C312.687 157.784 312.854 157.828 313.031 157.862C313.208 157.896 313.385 157.913 313.561 157.913C313.854 157.913 314.092 157.859 314.276 157.75C314.466 157.641 314.616 157.495 314.725 157.311C314.834 157.121 314.908 156.903 314.949 156.658C314.997 156.407 315.024 156.141 315.031 155.862C314.976 155.93 314.905 156.002 314.817 156.077C314.735 156.152 314.636 156.22 314.521 156.281C314.412 156.342 314.286 156.393 314.143 156.434C314 156.475 313.84 156.495 313.663 156.495C313.065 156.495 312.595 156.311 312.255 155.944C311.915 155.57 311.745 155.046 311.745 154.373C311.745 154.066 311.793 153.784 311.888 153.526C311.99 153.26 312.136 153.032 312.327 152.842C312.517 152.645 312.752 152.492 313.031 152.383C313.316 152.274 313.643 152.219 314.01 152.219C314.439 152.219 314.796 152.301 315.082 152.464C315.374 152.628 315.609 152.856 315.786 153.148C315.963 153.441 316.089 153.791 316.164 154.199C316.238 154.6 316.276 155.043 316.276 155.526C316.276 155.961 316.225 156.379 316.123 156.781C316.021 157.175 315.857 157.522 315.633 157.822C315.415 158.121 315.133 158.362 314.786 158.546C314.439 158.723 314.017 158.811 313.521 158.811C313.269 158.811 313.031 158.784 312.806 158.73C312.589 158.675 312.391 158.611 312.214 158.536L312.531 157.73ZM313.888 155.617C314.024 155.617 314.157 155.597 314.286 155.556C314.415 155.515 314.531 155.468 314.633 155.413C314.735 155.359 314.82 155.308 314.888 155.26C314.963 155.206 315.01 155.172 315.031 155.158C315.01 154.451 314.915 153.93 314.745 153.597C314.575 153.257 314.3 153.087 313.919 153.087C313.572 153.087 313.32 153.206 313.163 153.444C313.007 153.682 312.929 153.988 312.929 154.362C312.929 154.539 312.946 154.706 312.98 154.862C313.014 155.012 313.068 155.145 313.143 155.26C313.218 155.369 313.316 155.458 313.439 155.526C313.561 155.587 313.711 155.617 313.888 155.617ZM317.872 157.73C318.029 157.784 318.195 157.828 318.372 157.862C318.549 157.896 318.726 157.913 318.903 157.913C319.195 157.913 319.433 157.859 319.617 157.75C319.808 157.641 319.957 157.495 320.066 157.311C320.175 157.121 320.25 156.903 320.291 156.658C320.338 156.407 320.365 156.141 320.372 155.862C320.318 155.93 320.246 156.002 320.158 156.077C320.076 156.152 319.978 156.22 319.862 156.281C319.753 156.342 319.627 156.393 319.484 156.434C319.342 156.475 319.182 156.495 319.005 156.495C318.406 156.495 317.937 156.311 317.597 155.944C317.256 155.57 317.086 155.046 317.086 154.373C317.086 154.066 317.134 153.784 317.229 153.526C317.331 153.26 317.478 153.032 317.668 152.842C317.858 152.645 318.093 152.492 318.372 152.383C318.658 152.274 318.984 152.219 319.352 152.219C319.78 152.219 320.137 152.301 320.423 152.464C320.716 152.628 320.95 152.856 321.127 153.148C321.304 153.441 321.43 153.791 321.505 154.199C321.58 154.6 321.617 155.043 321.617 155.526C321.617 155.961 321.566 156.379 321.464 156.781C321.362 157.175 321.199 157.522 320.974 157.822C320.757 158.121 320.474 158.362 320.127 158.546C319.78 158.723 319.359 158.811 318.862 158.811C318.61 158.811 318.372 158.784 318.148 158.73C317.93 158.675 317.733 158.611 317.556 158.536L317.872 157.73ZM319.229 155.617C319.365 155.617 319.498 155.597 319.627 155.556C319.757 155.515 319.872 155.468 319.974 155.413C320.076 155.359 320.161 155.308 320.229 155.26C320.304 155.206 320.352 155.172 320.372 155.158C320.352 154.451 320.257 153.93 320.086 153.597C319.916 153.257 319.641 153.087 319.26 153.087C318.913 153.087 318.661 153.206 318.505 153.444C318.348 153.682 318.27 153.988 318.27 154.362C318.27 154.539 318.287 154.706 318.321 154.862C318.355 155.012 318.41 155.145 318.484 155.26C318.559 155.369 318.658 155.458 318.78 155.526C318.903 155.587 319.052 155.617 319.229 155.617Z" fill="#042776"/>
<path d="M363.42 169.344H376.303C377.152 169.344 377.86 168.551 377.86 167.6V152.536C377.86 151.585 377.152 150.792 376.303 150.792H363.42C362.57 150.792 361.862 151.585 361.862 152.536V167.6C361.862 168.551 362.57 169.344 363.42 169.344Z" fill="#85B8ED"/>
<path d="M361.864 167.6H374.747C375.596 167.6 376.304 166.807 376.304 165.856V150.792C376.304 149.841 375.596 149.048 374.747 149.048H361.864C361.014 149.048 360.306 149.841 360.306 150.792V165.856C360.306 166.807 361.014 167.6 361.864 167.6Z" fill="#EA5E5D"/>
<path d="M369.508 163.953H364.553V154.439H372.057V161.257" stroke="white" stroke-width="0.54666" stroke-miterlimit="10"/>
<path d="M366.393 156.659C366.706 156.659 366.959 156.375 366.959 156.024C366.959 155.674 366.706 155.39 366.393 155.39C366.08 155.39 365.827 155.674 365.827 156.024C365.827 156.375 366.08 156.659 366.393 156.659Z" fill="white"/>
<path d="M369.509 156.024C369.509 155.707 369.792 155.39 370.075 155.39C370.358 155.39 370.641 155.707 370.641 156.024C370.641 156.342 370.358 156.659 370.075 156.659C369.792 156.659 369.509 156.342 369.509 156.024Z" fill="white"/>
<path d="M366.394 155.708V153.488C366.394 152.378 367.244 151.427 368.235 151.427C369.226 151.427 370.075 152.378 370.075 153.488V155.708" stroke="white" stroke-width="0.364406" stroke-miterlimit="10"/>
<path d="M372.058 163.952V161.891" stroke="white" stroke-width="0.54666" stroke-miterlimit="10"/>
<path d="M372.057 166.014V163.952" stroke="white" stroke-width="0.54666" stroke-miterlimit="10"/>
<path d="M372.057 163.952H370.217" stroke="white" stroke-width="0.54666" stroke-miterlimit="10"/>
<path d="M373.898 163.952H372.057" stroke="white" stroke-width="0.54666" stroke-miterlimit="10"/>
<path d="M337.229 122.726H356.766L355.209 86.891L361.863 95.9291L370.782 85.3054C370.782 85.3054 359.173 69.4491 357.191 68.022C355.067 66.7535 345.723 65.9607 345.723 65.9607C345.582 69.2905 343.175 74.8402 337.229 74.8402C331.283 74.8402 329.017 69.2905 328.734 65.9607C328.734 65.9607 319.249 66.7535 317.267 68.022C315.143 69.2905 303.676 85.3054 303.676 85.3054L312.595 95.9291L319.249 86.891L317.691 122.726H337.229Z" fill="#85B8ED"/>
<path d="M466.487 273.679H393.576C392.16 273.679 391.028 272.41 391.028 270.825V189.165C391.028 187.579 392.16 186.311 393.576 186.311H466.487C467.902 186.311 469.035 187.579 469.035 189.165V270.825C469.177 272.252 467.902 273.679 466.487 273.679Z" fill="#85B8ED"/>
<path d="M463.654 270.348H390.744C389.328 270.348 388.195 269.08 388.195 267.494V185.834C388.195 184.248 389.328 182.98 390.744 182.98H463.654C465.07 182.98 466.203 184.248 466.203 185.834V267.494C466.203 269.08 465.07 270.348 463.654 270.348Z" fill="#FFFFF8"/>
<path d="M390.502 287.557C390.284 287.536 390.08 287.502 389.89 287.455C389.706 287.4 389.536 287.342 389.379 287.281C389.23 287.22 389.097 287.162 388.981 287.108C388.873 287.046 388.791 286.999 388.737 286.965L389.175 286.067C389.223 286.101 389.305 286.148 389.42 286.21C389.536 286.271 389.665 286.336 389.808 286.404C389.958 286.465 390.111 286.519 390.267 286.567C390.424 286.614 390.57 286.638 390.706 286.638C391.386 286.638 391.726 286.356 391.726 285.791C391.726 285.655 391.703 285.543 391.655 285.455C391.614 285.366 391.55 285.291 391.461 285.23C391.379 285.162 391.277 285.104 391.155 285.057C391.039 285.002 390.907 284.948 390.757 284.893C390.471 284.785 390.216 284.672 389.992 284.557C389.774 284.434 389.587 284.298 389.43 284.148C389.274 283.999 389.155 283.829 389.073 283.638C388.992 283.448 388.951 283.23 388.951 282.985C388.951 282.795 388.988 282.611 389.063 282.434C389.138 282.257 389.243 282.101 389.379 281.965C389.515 281.822 389.679 281.703 389.869 281.608C390.06 281.505 390.271 281.434 390.502 281.393V280.587H391.339V281.373C391.516 281.393 391.686 281.424 391.849 281.465C392.012 281.505 392.158 281.55 392.288 281.597C392.417 281.645 392.526 281.693 392.614 281.74C392.709 281.781 392.777 281.812 392.818 281.832L392.41 282.669C392.356 282.642 392.277 282.608 392.175 282.567C392.08 282.519 391.971 282.472 391.849 282.424C391.726 282.376 391.594 282.335 391.451 282.301C391.308 282.267 391.165 282.25 391.022 282.25C390.791 282.25 390.584 282.298 390.4 282.393C390.223 282.482 390.135 282.635 390.135 282.852C390.135 282.989 390.158 283.111 390.206 283.22C390.26 283.322 390.335 283.414 390.43 283.495C390.533 283.577 390.655 283.655 390.798 283.73C390.947 283.798 391.118 283.866 391.308 283.934C391.56 284.036 391.784 284.142 391.982 284.25C392.179 284.359 392.345 284.482 392.482 284.618C392.618 284.754 392.72 284.91 392.788 285.087C392.863 285.264 392.9 285.472 392.9 285.71C392.9 285.914 392.866 286.111 392.798 286.302C392.737 286.492 392.638 286.669 392.502 286.832C392.373 286.995 392.209 287.138 392.012 287.261C391.822 287.376 391.597 287.461 391.339 287.516V288.516H390.502V287.557ZM396.579 285.873H393.722V285.22L395.579 281.169H396.773L394.987 284.995H396.579V282.914L397.732 282.71V284.995H398.722L398.559 285.873H397.732V287.669H396.579V285.873ZM400.267 286.24C400.505 286.24 400.685 286.312 400.808 286.455C400.937 286.597 401.002 286.781 401.002 287.006C401.002 287.223 400.937 287.407 400.808 287.557C400.679 287.706 400.488 287.781 400.236 287.781C399.998 287.781 399.815 287.706 399.685 287.557C399.556 287.407 399.491 287.23 399.491 287.026C399.491 286.808 399.556 286.625 399.685 286.475C399.815 286.319 400.008 286.24 400.267 286.24ZM402.762 286.649C402.919 286.703 403.086 286.747 403.262 286.781C403.439 286.815 403.616 286.832 403.793 286.832C404.086 286.832 404.324 286.778 404.507 286.669C404.698 286.56 404.848 286.414 404.956 286.23C405.065 286.04 405.14 285.822 405.181 285.577C405.229 285.325 405.256 285.06 405.263 284.781C405.208 284.849 405.137 284.921 405.048 284.995C404.967 285.07 404.868 285.138 404.752 285.199C404.643 285.261 404.518 285.312 404.375 285.353C404.232 285.393 404.072 285.414 403.895 285.414C403.297 285.414 402.827 285.23 402.487 284.863C402.147 284.489 401.977 283.965 401.977 283.291C401.977 282.985 402.024 282.703 402.12 282.444C402.222 282.179 402.368 281.951 402.558 281.761C402.749 281.563 402.984 281.41 403.262 281.301C403.548 281.193 403.875 281.138 404.242 281.138C404.671 281.138 405.028 281.22 405.314 281.383C405.606 281.546 405.841 281.774 406.018 282.067C406.195 282.359 406.32 282.71 406.395 283.118C406.47 283.519 406.507 283.961 406.507 284.444C406.507 284.88 406.456 285.298 406.354 285.699C406.252 286.094 406.089 286.441 405.865 286.74C405.647 287.04 405.365 287.281 405.018 287.465C404.671 287.642 404.249 287.73 403.752 287.73C403.501 287.73 403.262 287.703 403.038 287.649C402.82 287.594 402.623 287.529 402.446 287.455L402.762 286.649ZM404.12 284.536C404.256 284.536 404.388 284.516 404.518 284.475C404.647 284.434 404.763 284.387 404.865 284.332C404.967 284.278 405.052 284.227 405.12 284.179C405.195 284.125 405.242 284.091 405.263 284.077C405.242 283.369 405.147 282.849 404.977 282.516C404.807 282.176 404.531 282.006 404.15 282.006C403.803 282.006 403.552 282.125 403.395 282.363C403.239 282.601 403.16 282.907 403.16 283.281C403.16 283.458 403.177 283.625 403.211 283.781C403.245 283.931 403.3 284.063 403.375 284.179C403.45 284.288 403.548 284.376 403.671 284.444C403.793 284.506 403.943 284.536 404.12 284.536ZM408.104 286.649C408.26 286.703 408.427 286.747 408.604 286.781C408.781 286.815 408.958 286.832 409.134 286.832C409.427 286.832 409.665 286.778 409.849 286.669C410.039 286.56 410.189 286.414 410.298 286.23C410.407 286.04 410.481 285.822 410.522 285.577C410.57 285.325 410.597 285.06 410.604 284.781C410.549 284.849 410.478 284.921 410.39 284.995C410.308 285.07 410.209 285.138 410.094 285.199C409.985 285.261 409.859 285.312 409.716 285.353C409.573 285.393 409.413 285.414 409.237 285.414C408.638 285.414 408.168 285.23 407.828 284.863C407.488 284.489 407.318 283.965 407.318 283.291C407.318 282.985 407.366 282.703 407.461 282.444C407.563 282.179 407.709 281.951 407.9 281.761C408.09 281.563 408.325 281.41 408.604 281.301C408.89 281.193 409.216 281.138 409.583 281.138C410.012 281.138 410.369 281.22 410.655 281.383C410.947 281.546 411.182 281.774 411.359 282.067C411.536 282.359 411.662 282.71 411.737 283.118C411.811 283.519 411.849 283.961 411.849 284.444C411.849 284.88 411.798 285.298 411.696 285.699C411.594 286.094 411.43 286.441 411.206 286.74C410.988 287.04 410.706 287.281 410.359 287.465C410.012 287.642 409.59 287.73 409.094 287.73C408.842 287.73 408.604 287.703 408.379 287.649C408.162 287.594 407.964 287.529 407.787 287.455L408.104 286.649ZM409.461 284.536C409.597 284.536 409.73 284.516 409.859 284.475C409.988 284.434 410.104 284.387 410.206 284.332C410.308 284.278 410.393 284.227 410.461 284.179C410.536 284.125 410.583 284.091 410.604 284.077C410.583 283.369 410.488 282.849 410.318 282.516C410.148 282.176 409.873 282.006 409.492 282.006C409.145 282.006 408.893 282.125 408.737 282.363C408.58 282.601 408.502 282.907 408.502 283.281C408.502 283.458 408.519 283.625 408.553 283.781C408.587 283.931 408.641 284.063 408.716 284.179C408.791 284.288 408.89 284.376 409.012 284.444C409.134 284.506 409.284 284.536 409.461 284.536Z" fill="#042776"/>
<path d="M453.461 298.256H466.344C467.193 298.256 467.901 297.463 467.901 296.512V281.448C467.901 280.497 467.193 279.704 466.344 279.704H453.461C452.611 279.704 451.903 280.497 451.903 281.448V296.512C451.903 297.463 452.611 298.256 453.461 298.256Z" fill="#85B8ED"/>
<path d="M451.904 296.511H464.787C465.636 296.511 466.344 295.718 466.344 294.767V279.703C466.344 278.752 465.636 277.959 464.787 277.959H451.904C451.054 277.959 450.346 278.752 450.346 279.703V294.767C450.346 295.718 451.054 296.511 451.904 296.511Z" fill="#EA5E5D"/>
<path d="M459.548 292.865H454.593V283.352H462.097V290.17" stroke="white" stroke-width="0.54666" stroke-miterlimit="10"/>
<path d="M456.01 284.936C456.01 284.619 456.293 284.302 456.576 284.302C456.859 284.302 457.143 284.619 457.143 284.936C457.143 285.254 456.859 285.571 456.576 285.571C456.151 285.571 456.01 285.254 456.01 284.936Z" fill="white"/>
<path d="M459.549 284.936C459.549 284.619 459.832 284.302 460.115 284.302C460.398 284.302 460.681 284.619 460.681 284.936C460.681 285.254 460.398 285.571 460.115 285.571C459.832 285.571 459.549 285.254 459.549 284.936Z" fill="white"/>
<path d="M456.434 284.619V282.399C456.434 281.289 457.284 280.338 458.275 280.338C459.266 280.338 460.115 281.289 460.115 282.399V284.619" stroke="white" stroke-width="0.364406" stroke-miterlimit="10"/>
<path d="M462.097 292.865V290.803" stroke="white" stroke-width="0.54666" stroke-miterlimit="10"/>
<path d="M462.097 294.926V292.865" stroke="white" stroke-width="0.54666" stroke-miterlimit="10"/>
<path d="M462.096 292.865H460.256" stroke="white" stroke-width="0.54666" stroke-miterlimit="10"/>
<path d="M463.938 292.865H462.097" stroke="white" stroke-width="0.54666" stroke-miterlimit="10"/>
<path d="M427.27 251.638H446.807L445.25 215.803L451.904 224.841L460.823 214.217C460.823 214.217 449.214 198.361 447.232 196.934C445.25 195.507 435.764 194.873 435.764 194.873C435.623 198.203 433.216 203.752 427.27 203.752C421.324 203.752 419.058 198.203 418.775 194.873C418.775 194.873 409.29 195.666 407.308 196.934C405.184 198.203 393.717 214.217 393.717 214.217L402.636 224.841L409.29 215.803L407.733 251.638H427.27Z" fill="#3ED9C7"/>
<path d="M466.487 144.609H393.576C392.16 144.609 391.028 143.34 391.028 141.755V60.0948C391.028 58.5092 392.16 57.2407 393.576 57.2407H466.487C467.902 57.2407 469.035 58.5092 469.035 60.0948V141.755C469.177 143.34 467.902 144.609 466.487 144.609Z" fill="#85B8ED"/>
<path d="M463.654 141.437H390.744C389.328 141.437 388.195 140.168 388.195 138.583V56.9227C388.195 55.3371 389.328 54.0686 390.744 54.0686H463.654C465.07 54.0686 466.203 55.3371 466.203 56.9227V138.583C466.203 140.168 465.07 141.437 463.654 141.437Z" fill="#FFFFF8"/>
<path d="M390.502 158.638C390.284 158.618 390.08 158.584 389.89 158.536C389.706 158.482 389.536 158.424 389.379 158.362C389.23 158.301 389.097 158.243 388.981 158.189C388.873 158.128 388.791 158.08 388.737 158.046L389.175 157.148C389.223 157.182 389.305 157.23 389.42 157.291C389.536 157.352 389.665 157.417 389.808 157.485C389.958 157.546 390.111 157.601 390.267 157.648C390.424 157.696 390.57 157.72 390.706 157.72C391.386 157.72 391.726 157.437 391.726 156.873C391.726 156.737 391.703 156.624 391.655 156.536C391.614 156.447 391.55 156.373 391.461 156.311C391.379 156.243 391.277 156.186 391.155 156.138C391.039 156.083 390.907 156.029 390.757 155.975C390.471 155.866 390.216 155.754 389.992 155.638C389.774 155.515 389.587 155.379 389.43 155.23C389.274 155.08 389.155 154.91 389.073 154.72C388.992 154.529 388.951 154.311 388.951 154.066C388.951 153.876 388.988 153.692 389.063 153.515C389.138 153.339 389.243 153.182 389.379 153.046C389.515 152.903 389.679 152.784 389.869 152.689C390.06 152.587 390.271 152.515 390.502 152.475V151.668H391.339V152.454C391.516 152.475 391.686 152.505 391.849 152.546C392.012 152.587 392.158 152.631 392.288 152.679C392.417 152.726 392.526 152.774 392.614 152.821C392.709 152.862 392.777 152.893 392.818 152.913L392.41 153.75C392.356 153.723 392.277 153.689 392.175 153.648C392.08 153.6 391.971 153.553 391.849 153.505C391.726 153.458 391.594 153.417 391.451 153.383C391.308 153.349 391.165 153.332 391.022 153.332C390.791 153.332 390.584 153.379 390.4 153.475C390.223 153.563 390.135 153.716 390.135 153.934C390.135 154.07 390.158 154.192 390.206 154.301C390.26 154.403 390.335 154.495 390.43 154.577C390.533 154.658 390.655 154.737 390.798 154.811C390.947 154.879 391.118 154.947 391.308 155.015C391.56 155.117 391.784 155.223 391.982 155.332C392.179 155.441 392.345 155.563 392.482 155.699C392.618 155.835 392.72 155.992 392.788 156.169C392.863 156.345 392.9 156.553 392.9 156.791C392.9 156.995 392.866 157.192 392.798 157.383C392.737 157.573 392.638 157.75 392.502 157.913C392.373 158.077 392.209 158.22 392.012 158.342C391.822 158.458 391.597 158.543 391.339 158.597V159.597H390.502V158.638ZM396.426 152.25V158.75H395.263V153.607C395.052 153.805 394.834 153.981 394.61 154.138C394.385 154.288 394.174 154.39 393.977 154.444L393.518 153.607C393.681 153.539 393.844 153.471 394.008 153.403C394.171 153.328 394.334 153.24 394.497 153.138C394.661 153.036 394.827 152.917 394.997 152.781C395.174 152.638 395.361 152.461 395.559 152.25H396.426ZM400.383 152.199C400.805 152.199 401.162 152.27 401.454 152.413C401.754 152.556 401.999 152.764 402.189 153.036C402.38 153.308 402.516 153.645 402.597 154.046C402.686 154.447 402.73 154.903 402.73 155.413C402.73 155.924 402.682 156.386 402.587 156.801C402.499 157.216 402.352 157.573 402.148 157.873C401.951 158.172 401.696 158.403 401.383 158.567C401.07 158.73 400.693 158.811 400.25 158.811C399.829 158.811 399.468 158.74 399.169 158.597C398.876 158.454 398.635 158.247 398.444 157.975C398.254 157.696 398.114 157.356 398.026 156.954C397.944 156.553 397.903 156.094 397.903 155.577C397.903 155.066 397.948 154.604 398.036 154.189C398.131 153.774 398.278 153.42 398.475 153.128C398.679 152.828 398.937 152.6 399.25 152.444C399.563 152.281 399.941 152.199 400.383 152.199ZM400.25 153.087C400.039 153.087 399.863 153.145 399.72 153.26C399.584 153.369 399.475 153.529 399.393 153.74C399.312 153.944 399.254 154.192 399.22 154.485C399.186 154.777 399.169 155.104 399.169 155.464C399.169 155.805 399.182 156.124 399.21 156.424C399.244 156.723 399.301 156.985 399.383 157.209C399.471 157.427 399.594 157.601 399.75 157.73C399.907 157.859 400.114 157.924 400.373 157.924C400.584 157.924 400.757 157.866 400.893 157.75C401.036 157.635 401.148 157.475 401.23 157.271C401.312 157.06 401.369 156.808 401.403 156.515C401.437 156.223 401.454 155.896 401.454 155.536C401.454 155.196 401.441 154.879 401.414 154.587C401.386 154.288 401.329 154.029 401.24 153.811C401.152 153.587 401.029 153.41 400.873 153.281C400.716 153.151 400.509 153.087 400.25 153.087ZM404.582 157.322C404.82 157.322 405 157.393 405.123 157.536C405.252 157.679 405.317 157.862 405.317 158.087C405.317 158.305 405.252 158.488 405.123 158.638C404.993 158.788 404.803 158.862 404.551 158.862C404.313 158.862 404.129 158.788 404 158.638C403.871 158.488 403.806 158.311 403.806 158.107C403.806 157.89 403.871 157.706 404 157.556C404.129 157.4 404.323 157.322 404.582 157.322ZM407.077 157.73C407.234 157.784 407.401 157.828 407.577 157.862C407.754 157.896 407.931 157.913 408.108 157.913C408.401 157.913 408.639 157.859 408.822 157.75C409.013 157.641 409.163 157.495 409.271 157.311C409.38 157.121 409.455 156.903 409.496 156.658C409.543 156.407 409.571 156.141 409.577 155.862C409.523 155.93 409.452 156.002 409.363 156.077C409.282 156.152 409.183 156.22 409.067 156.281C408.958 156.342 408.833 156.393 408.69 156.434C408.547 156.475 408.387 156.495 408.21 156.495C407.611 156.495 407.142 156.311 406.802 155.944C406.462 155.57 406.292 155.046 406.292 154.373C406.292 154.066 406.339 153.784 406.435 153.526C406.537 153.26 406.683 153.032 406.873 152.842C407.064 152.645 407.299 152.492 407.577 152.383C407.863 152.274 408.19 152.219 408.557 152.219C408.986 152.219 409.343 152.301 409.629 152.464C409.921 152.628 410.156 152.856 410.333 153.148C410.509 153.441 410.635 153.791 410.71 154.199C410.785 154.6 410.822 155.043 410.822 155.526C410.822 155.961 410.771 156.379 410.669 156.781C410.567 157.175 410.404 157.522 410.18 157.822C409.962 158.121 409.68 158.362 409.333 158.546C408.986 158.723 408.564 158.811 408.067 158.811C407.816 158.811 407.577 158.784 407.353 158.73C407.135 158.675 406.938 158.611 406.761 158.536L407.077 157.73ZM408.435 155.617C408.571 155.617 408.703 155.597 408.833 155.556C408.962 155.515 409.077 155.468 409.18 155.413C409.282 155.359 409.367 155.308 409.435 155.26C409.509 155.206 409.557 155.172 409.577 155.158C409.557 154.451 409.462 153.93 409.292 153.597C409.122 153.257 408.846 153.087 408.465 153.087C408.118 153.087 407.867 153.206 407.71 153.444C407.554 153.682 407.475 153.988 407.475 154.362C407.475 154.539 407.492 154.706 407.526 154.862C407.56 155.012 407.615 155.145 407.69 155.26C407.765 155.369 407.863 155.458 407.986 155.526C408.108 155.587 408.258 155.617 408.435 155.617ZM412.419 157.73C412.575 157.784 412.742 157.828 412.919 157.862C413.096 157.896 413.273 157.913 413.449 157.913C413.742 157.913 413.98 157.859 414.164 157.75C414.354 157.641 414.504 157.495 414.613 157.311C414.722 157.121 414.796 156.903 414.837 156.658C414.885 156.407 414.912 156.141 414.919 155.862C414.864 155.93 414.793 156.002 414.705 156.077C414.623 156.152 414.524 156.22 414.409 156.281C414.3 156.342 414.174 156.393 414.031 156.434C413.888 156.475 413.728 156.495 413.551 156.495C412.953 156.495 412.483 156.311 412.143 155.944C411.803 155.57 411.633 155.046 411.633 154.373C411.633 154.066 411.681 153.784 411.776 153.526C411.878 153.26 412.024 153.032 412.215 152.842C412.405 152.645 412.64 152.492 412.919 152.383C413.205 152.274 413.531 152.219 413.898 152.219C414.327 152.219 414.684 152.301 414.97 152.464C415.262 152.628 415.497 152.856 415.674 153.148C415.851 153.441 415.977 153.791 416.052 154.199C416.126 154.6 416.164 155.043 416.164 155.526C416.164 155.961 416.113 156.379 416.011 156.781C415.909 157.175 415.745 157.522 415.521 157.822C415.303 158.121 415.021 158.362 414.674 158.546C414.327 158.723 413.905 158.811 413.409 158.811C413.157 158.811 412.919 158.784 412.694 158.73C412.477 158.675 412.279 158.611 412.102 158.536L412.419 157.73ZM413.776 155.617C413.912 155.617 414.045 155.597 414.174 155.556C414.303 155.515 414.419 155.468 414.521 155.413C414.623 155.359 414.708 155.308 414.776 155.26C414.851 155.206 414.898 155.172 414.919 155.158C414.898 154.451 414.803 153.93 414.633 153.597C414.463 153.257 414.188 153.087 413.807 153.087C413.46 153.087 413.208 153.206 413.051 153.444C412.895 153.682 412.817 153.988 412.817 154.362C412.817 154.539 412.834 154.706 412.868 154.862C412.902 155.012 412.956 155.145 413.031 155.26C413.106 155.369 413.205 155.458 413.327 155.526C413.449 155.587 413.599 155.617 413.776 155.617Z" fill="#042776"/>
<path d="M453.461 169.344H466.344C467.193 169.344 467.901 168.551 467.901 167.6V152.536C467.901 151.585 467.193 150.792 466.344 150.792H453.461C452.611 150.792 451.903 151.585 451.903 152.536V167.6C451.903 168.551 452.611 169.344 453.461 169.344Z" fill="#85B8ED"/>
<path d="M451.904 167.6H464.787C465.636 167.6 466.344 166.807 466.344 165.856V150.792C466.344 149.841 465.636 149.048 464.787 149.048H451.904C451.054 149.048 450.346 149.841 450.346 150.792V165.856C450.346 166.807 451.054 167.6 451.904 167.6Z" fill="#EA5E5D"/>
<path d="M459.548 163.953H454.593V154.44H462.097V161.258" stroke="white" stroke-width="0.54666" stroke-miterlimit="10"/>
<path d="M456.434 156.658C456.747 156.658 457 156.374 457 156.024C457 155.674 456.747 155.39 456.434 155.39C456.121 155.39 455.868 155.674 455.868 156.024C455.868 156.374 456.121 156.658 456.434 156.658Z" fill="white"/>
<path d="M460.115 156.658C460.428 156.658 460.682 156.374 460.682 156.024C460.682 155.674 460.428 155.39 460.115 155.39C459.803 155.39 459.549 155.674 459.549 156.024C459.549 156.374 459.803 156.658 460.115 156.658Z" fill="white"/>
<path d="M456.434 155.708V153.488C456.434 152.378 457.284 151.427 458.275 151.427C459.266 151.427 460.115 152.378 460.115 153.488V155.708" stroke="white" stroke-width="0.364406" stroke-miterlimit="10"/>
<path d="M462.097 163.953V161.892" stroke="white" stroke-width="0.54666" stroke-miterlimit="10"/>
<path d="M462.097 166.014V163.952" stroke="white" stroke-width="0.54666" stroke-miterlimit="10"/>
<path d="M462.096 163.952H460.256" stroke="white" stroke-width="0.54666" stroke-miterlimit="10"/>
<path d="M463.938 163.952H462.097" stroke="white" stroke-width="0.54666" stroke-miterlimit="10"/>
<path d="M409.432 75.3162C403.344 81.8172 404.335 89.2697 406.459 97.8321C408.583 106.395 409.574 122.885 409.574 122.885H414.953C414.953 122.885 414.387 104.65 418.068 103.382C421.749 101.955 428.686 117.652 430.102 120.189C431.518 122.568 434.349 123.044 437.605 123.044C440.861 123.044 456.435 123.044 456.435 123.044C456.435 123.044 461.956 118.287 451.904 112.737C445.392 109.249 444.259 108.297 444.259 108.297C444.259 108.297 435.765 107.98 426.704 97.9907C423.165 94.1852 418.917 83.5614 415.803 79.7559C412.405 75.3162 409.432 75.3162 409.432 75.3162Z" fill="#FFC854"/>
<path d="M376.444 273.679H303.534C302.118 273.679 300.985 272.41 300.985 270.825V189.165C300.985 187.579 302.118 186.311 303.534 186.311H376.444C377.86 186.311 378.993 187.579 378.993 189.165V270.825C378.993 272.252 377.86 273.679 376.444 273.679Z" fill="#85B8ED"/>
<path d="M373.614 270.348H300.703C299.288 270.348 298.155 269.08 298.155 267.494V185.834C298.155 184.248 299.288 182.98 300.703 182.98H373.614C375.03 182.98 376.162 184.248 376.162 185.834V267.494C376.162 269.08 375.03 270.348 373.614 270.348Z" fill="#FFFFF8"/>
<path d="M300.44 287.557C300.222 287.536 300.018 287.502 299.827 287.455C299.644 287.4 299.474 287.342 299.317 287.281C299.167 287.22 299.035 287.162 298.919 287.108C298.81 287.046 298.729 286.999 298.674 286.965L299.113 286.067C299.161 286.101 299.242 286.148 299.358 286.21C299.474 286.271 299.603 286.336 299.746 286.404C299.895 286.465 300.048 286.519 300.205 286.567C300.361 286.614 300.508 286.638 300.644 286.638C301.324 286.638 301.664 286.356 301.664 285.791C301.664 285.655 301.64 285.543 301.593 285.455C301.552 285.366 301.487 285.291 301.399 285.23C301.317 285.162 301.215 285.104 301.093 285.057C300.977 285.002 300.844 284.948 300.695 284.893C300.409 284.785 300.154 284.672 299.929 284.557C299.712 284.434 299.525 284.298 299.368 284.148C299.212 283.999 299.093 283.829 299.011 283.638C298.929 283.448 298.889 283.23 298.889 282.985C298.889 282.795 298.926 282.611 299.001 282.434C299.076 282.257 299.181 282.101 299.317 281.965C299.453 281.822 299.616 281.703 299.807 281.608C299.997 281.505 300.208 281.434 300.44 281.393V280.587H301.276V281.373C301.453 281.393 301.623 281.424 301.787 281.465C301.95 281.505 302.096 281.55 302.225 281.597C302.355 281.645 302.463 281.693 302.552 281.74C302.647 281.781 302.715 281.812 302.756 281.832L302.348 282.669C302.293 282.642 302.215 282.608 302.113 282.567C302.018 282.519 301.909 282.472 301.787 282.424C301.664 282.376 301.531 282.335 301.389 282.301C301.246 282.267 301.103 282.25 300.96 282.25C300.729 282.25 300.521 282.298 300.338 282.393C300.161 282.482 300.072 282.635 300.072 282.852C300.072 282.989 300.096 283.111 300.144 283.22C300.198 283.322 300.273 283.414 300.368 283.495C300.47 283.577 300.593 283.655 300.736 283.73C300.885 283.798 301.055 283.866 301.246 283.934C301.497 284.036 301.722 284.142 301.919 284.25C302.117 284.359 302.283 284.482 302.419 284.618C302.555 284.754 302.657 284.91 302.725 285.087C302.8 285.264 302.838 285.472 302.838 285.71C302.838 285.914 302.804 286.111 302.736 286.302C302.674 286.492 302.576 286.669 302.44 286.832C302.31 286.995 302.147 287.138 301.95 287.261C301.759 287.376 301.535 287.461 301.276 287.516V288.516H300.44V287.557ZM304.598 286.649C304.755 286.703 304.922 286.747 305.098 286.781C305.275 286.815 305.452 286.832 305.629 286.832C305.922 286.832 306.16 286.778 306.343 286.669C306.534 286.56 306.684 286.414 306.792 286.23C306.901 286.04 306.976 285.822 307.017 285.577C307.064 285.325 307.092 285.06 307.099 284.781C307.044 284.849 306.973 284.921 306.884 284.995C306.803 285.07 306.704 285.138 306.588 285.199C306.479 285.261 306.354 285.312 306.211 285.353C306.068 285.393 305.908 285.414 305.731 285.414C305.132 285.414 304.663 285.23 304.323 284.863C303.983 284.489 303.813 283.965 303.813 283.291C303.813 282.985 303.86 282.703 303.956 282.444C304.058 282.179 304.204 281.951 304.394 281.761C304.585 281.563 304.82 281.41 305.098 281.301C305.384 281.193 305.711 281.138 306.078 281.138C306.507 281.138 306.864 281.22 307.15 281.383C307.442 281.546 307.677 281.774 307.854 282.067C308.031 282.359 308.156 282.71 308.231 283.118C308.306 283.519 308.343 283.961 308.343 284.444C308.343 284.88 308.292 285.298 308.19 285.699C308.088 286.094 307.925 286.441 307.701 286.74C307.483 287.04 307.201 287.281 306.854 287.465C306.507 287.642 306.085 287.73 305.588 287.73C305.337 287.73 305.098 287.703 304.874 287.649C304.656 287.594 304.459 287.529 304.282 287.455L304.598 286.649ZM305.956 284.536C306.092 284.536 306.224 284.516 306.354 284.475C306.483 284.434 306.598 284.387 306.701 284.332C306.803 284.278 306.888 284.227 306.956 284.179C307.03 284.125 307.078 284.091 307.099 284.077C307.078 283.369 306.983 282.849 306.813 282.516C306.643 282.176 306.367 282.006 305.986 282.006C305.639 282.006 305.388 282.125 305.231 282.363C305.075 282.601 304.996 282.907 304.996 283.281C304.996 283.458 305.013 283.625 305.047 283.781C305.081 283.931 305.136 284.063 305.211 284.179C305.286 284.288 305.384 284.376 305.507 284.444C305.629 284.506 305.779 284.536 305.956 284.536ZM310.185 286.24C310.423 286.24 310.603 286.312 310.726 286.455C310.855 286.597 310.919 286.781 310.919 287.006C310.919 287.223 310.855 287.407 310.726 287.557C310.596 287.706 310.406 287.781 310.154 287.781C309.916 287.781 309.732 287.706 309.603 287.557C309.474 287.407 309.409 287.23 309.409 287.026C309.409 286.808 309.474 286.625 309.603 286.475C309.732 286.319 309.926 286.24 310.185 286.24ZM312.68 286.649C312.837 286.703 313.003 286.747 313.18 286.781C313.357 286.815 313.534 286.832 313.711 286.832C314.003 286.832 314.241 286.778 314.425 286.669C314.616 286.56 314.765 286.414 314.874 286.23C314.983 286.04 315.058 285.822 315.099 285.577C315.146 285.325 315.173 285.06 315.18 284.781C315.126 284.849 315.054 284.921 314.966 284.995C314.884 285.07 314.786 285.138 314.67 285.199C314.561 285.261 314.435 285.312 314.293 285.353C314.15 285.393 313.99 285.414 313.813 285.414C313.214 285.414 312.745 285.23 312.405 284.863C312.065 284.489 311.894 283.965 311.894 283.291C311.894 282.985 311.942 282.703 312.037 282.444C312.139 282.179 312.286 281.951 312.476 281.761C312.667 281.563 312.901 281.41 313.18 281.301C313.466 281.193 313.793 281.138 314.16 281.138C314.588 281.138 314.946 281.22 315.231 281.383C315.524 281.546 315.759 281.774 315.935 282.067C316.112 282.359 316.238 282.71 316.313 283.118C316.388 283.519 316.425 283.961 316.425 284.444C316.425 284.88 316.374 285.298 316.272 285.699C316.17 286.094 316.007 286.441 315.782 286.74C315.565 287.04 315.282 287.281 314.935 287.465C314.588 287.642 314.167 287.73 313.67 287.73C313.418 287.73 313.18 287.703 312.956 287.649C312.738 287.594 312.541 287.529 312.364 287.455L312.68 286.649ZM314.037 284.536C314.173 284.536 314.306 284.516 314.435 284.475C314.565 284.434 314.68 284.387 314.782 284.332C314.884 284.278 314.969 284.227 315.037 284.179C315.112 284.125 315.16 284.091 315.18 284.077C315.16 283.369 315.065 282.849 314.895 282.516C314.725 282.176 314.449 282.006 314.068 282.006C313.721 282.006 313.469 282.125 313.313 282.363C313.156 282.601 313.078 282.907 313.078 283.281C313.078 283.458 313.095 283.625 313.129 283.781C313.163 283.931 313.218 284.063 313.292 284.179C313.367 284.288 313.466 284.376 313.588 284.444C313.711 284.506 313.861 284.536 314.037 284.536ZM318.022 286.649C318.178 286.703 318.345 286.747 318.522 286.781C318.698 286.815 318.875 286.832 319.052 286.832C319.345 286.832 319.583 286.778 319.767 286.669C319.957 286.56 320.107 286.414 320.216 286.23C320.324 286.04 320.399 285.822 320.44 285.577C320.488 285.325 320.515 285.06 320.522 284.781C320.467 284.849 320.396 284.921 320.307 284.995C320.226 285.07 320.127 285.138 320.011 285.199C319.903 285.261 319.777 285.312 319.634 285.353C319.491 285.393 319.331 285.414 319.154 285.414C318.556 285.414 318.086 285.23 317.746 284.863C317.406 284.489 317.236 283.965 317.236 283.291C317.236 282.985 317.283 282.703 317.379 282.444C317.481 282.179 317.627 281.951 317.817 281.761C318.008 281.563 318.243 281.41 318.522 281.301C318.807 281.193 319.134 281.138 319.501 281.138C319.93 281.138 320.287 281.22 320.573 281.383C320.865 281.546 321.1 281.774 321.277 282.067C321.454 282.359 321.58 282.71 321.654 283.118C321.729 283.519 321.767 283.961 321.767 284.444C321.767 284.88 321.716 285.298 321.614 285.699C321.511 286.094 321.348 286.441 321.124 286.74C320.906 287.04 320.624 287.281 320.277 287.465C319.93 287.642 319.508 287.73 319.011 287.73C318.76 287.73 318.522 287.703 318.297 287.649C318.079 287.594 317.882 287.529 317.705 287.455L318.022 286.649ZM319.379 284.536C319.515 284.536 319.647 284.516 319.777 284.475C319.906 284.434 320.022 284.387 320.124 284.332C320.226 284.278 320.311 284.227 320.379 284.179C320.454 284.125 320.501 284.091 320.522 284.077C320.501 283.369 320.406 282.849 320.236 282.516C320.066 282.176 319.79 282.006 319.409 282.006C319.062 282.006 318.811 282.125 318.654 282.363C318.498 282.601 318.42 282.907 318.42 283.281C318.42 283.458 318.437 283.625 318.471 283.781C318.505 283.931 318.559 284.063 318.634 284.179C318.709 284.288 318.807 284.376 318.93 284.444C319.052 284.506 319.202 284.536 319.379 284.536Z" fill="#042776"/>
<path d="M363.419 298.256H376.303C377.152 298.256 377.86 297.463 377.86 296.512V281.448C377.86 280.497 377.152 279.704 376.303 279.704H363.419C362.57 279.704 361.862 280.497 361.862 281.448V296.512C361.862 297.463 362.57 298.256 363.419 298.256Z" fill="#85B8ED"/>
<path d="M361.864 296.511H374.747C375.596 296.511 376.304 295.718 376.304 294.767V279.703C376.304 278.752 375.596 277.959 374.747 277.959H361.864C361.014 277.959 360.306 278.752 360.306 279.703V294.767C360.306 295.718 361.014 296.511 361.864 296.511Z" fill="#EA5E5D"/>
<path d="M369.508 292.865H364.553V283.352H372.057V290.17" stroke="white" stroke-width="0.54666" stroke-miterlimit="10"/>
<path d="M365.969 284.936C365.969 284.619 366.252 284.302 366.535 284.302C366.818 284.302 367.102 284.619 367.102 284.936C367.102 285.254 366.818 285.571 366.535 285.571C366.111 285.571 365.969 285.254 365.969 284.936Z" fill="white"/>
<path d="M369.508 284.936C369.508 284.619 369.791 284.302 370.074 284.302C370.357 284.302 370.64 284.619 370.64 284.936C370.64 285.254 370.357 285.571 370.074 285.571C369.791 285.571 369.508 285.254 369.508 284.936Z" fill="white"/>
<path d="M366.394 284.619V282.399C366.394 281.289 367.243 280.338 368.234 280.338C369.226 280.338 370.075 281.289 370.075 282.399V284.619" stroke="white" stroke-width="0.364406" stroke-miterlimit="10"/>
<path d="M372.058 292.865V290.803" stroke="white" stroke-width="0.54666" stroke-miterlimit="10"/>
<path d="M372.057 294.925V292.864" stroke="white" stroke-width="0.54666" stroke-miterlimit="10"/>
<path d="M372.057 292.864H370.217" stroke="white" stroke-width="0.54666" stroke-miterlimit="10"/>
<path d="M373.898 292.864H372.057" stroke="white" stroke-width="0.54666" stroke-miterlimit="10"/>
<path d="M319.391 204.228C313.303 210.729 314.294 218.181 316.418 226.744C318.541 235.306 319.532 251.797 319.532 251.797H324.912C324.912 251.797 324.346 233.562 328.027 232.293C331.708 230.866 338.645 246.564 340.061 249.101C341.476 251.48 344.308 251.955 347.564 251.955C350.82 251.955 366.393 251.955 366.393 251.955C366.393 251.955 371.915 247.198 361.863 241.649C355.351 238.16 354.218 237.209 354.218 237.209C354.218 237.209 345.723 236.892 336.663 226.902C333.123 223.097 328.876 212.473 325.762 208.668C322.364 204.228 319.391 204.228 319.391 204.228Z" fill="#778FF9"/>
<path d="M426.987 349.789C426.987 349.789 419.059 345.667 420.191 339.483C421.324 333.14 427.836 333.933 426.987 328.859C426.137 323.944 421.89 316.174 425.996 310.624C430.102 305.075 437.039 308.404 437.888 299.683C438.596 292.707 441.427 287.633 447.09 289.218C452.329 290.645 456.151 295.085 456.293 305.867C456.434 317.284 463.513 314.113 463.655 322.516C463.796 330.92 457.708 330.92 455.302 336.629C454.169 339.324 457.142 348.679 448.506 349.948H426.987V349.789Z" fill="#22A482"/>
<path d="M446.808 294.927C446.808 294.927 450.064 327.432 435.624 351.375" stroke="#3B55CE" stroke-width="0.620369" stroke-miterlimit="10" stroke-linecap="round"/>
<path d="M442.844 349.789C442.844 349.789 441.57 342.019 446.242 338.848C450.914 335.677 455.727 333.298 455.161 328.224C454.595 323.15 455.869 317.125 463.514 316.966C468.186 316.966 466.487 311.417 471.159 310.307C473.99 309.673 475.972 313.002 476.255 316.332C476.68 320.138 474.84 323.785 476.963 326.797C479.795 330.761 480.927 338.214 474.84 340.275C468.752 342.337 474.132 348.838 465.92 349.789H442.844Z" fill="#40C7A7"/>
<path d="M471.584 315.382C471.301 325.53 463.656 343.606 452.189 351.375" stroke="#3B55CE" stroke-width="0.620369" stroke-miterlimit="10" stroke-linecap="round"/>
<path d="M597.16 354.07H1.84047C0.849449 354.07 0 353.119 0 352.009C0 350.899 0.849449 349.947 1.84047 349.947H597.16C598.151 349.947 599 350.899 599 352.009C598.858 353.119 598.151 354.07 597.16 354.07Z" fill="#638BE2"/>
<path d="M148.37 268.922H183.48V299.525H156.865L148.37 268.922Z" fill="#778FF9"/>
<path d="M197.495 268.922H183.479V299.683H197.495V268.922Z" fill="#607CE2"/>
<path d="M225.386 268.922H197.354V299.683H225.386V268.922Z" fill="#FFC854"/>
<path d="M238.127 299.525H225.527V268.922H243.507L238.127 299.525Z" fill="#FFB852"/>
<path d="M172.013 217.706V207.875C172.013 202.643 175.836 198.52 180.366 198.52C185.038 198.52 188.719 202.801 188.719 207.875V217.706" stroke="#FFFFF8" stroke-width="0.838266" stroke-miterlimit="10" stroke-linecap="round"/>
<path d="M191.409 212.949H155.732L151.485 268.922H187.162L191.409 212.949Z" fill="#EA5E5D"/>
<path d="M197.638 212.949H191.409L187.162 268.922H192.825H196.364H201.885L197.638 212.949Z" fill="#D34A4A"/>
<path d="M187.162 268.922L194.523 261.469L201.885 268.922H187.162Z" fill="#A52F2F"/>
<path d="M163.66 218.5C163.66 217.549 164.368 216.914 165.075 216.914C165.925 216.914 166.491 217.707 166.491 218.5C166.491 219.451 165.783 220.086 165.075 220.086C164.368 220.086 163.66 219.451 163.66 218.5Z" fill="#A52F2F"/>
<path d="M180.507 218.5C180.507 217.549 181.215 216.914 181.923 216.914C182.772 216.914 183.339 217.707 183.339 218.5C183.339 219.451 182.631 220.086 181.923 220.086C181.215 220.086 180.507 219.451 180.507 218.5Z" fill="#A52F2F"/>
<path d="M165.075 217.706V207.875C165.075 202.643 168.898 198.52 173.428 198.52C178.1 198.52 181.781 202.801 181.781 207.875V217.706" stroke="#FFFFF8" stroke-width="0.838266" stroke-miterlimit="10" stroke-linecap="round"/>
<path d="M213.634 217.706V207.875C213.634 202.643 217.457 198.52 221.987 198.52C226.659 198.52 230.34 202.801 230.34 207.875V217.706" stroke="#FFFFF8" stroke-width="0.838266" stroke-miterlimit="10" stroke-linecap="round"/>
<path d="M233.03 212.949H197.353L193.106 268.922H228.782L233.03 212.949Z" fill="#778FF9"/>
<path d="M239.259 212.949H233.03L228.782 268.922H234.304H237.843H243.506L239.259 212.949Z" fill="#607CE2"/>
<path d="M228.782 268.922L236.144 261.469L243.506 268.922H228.782Z" fill="#4062C1"/>
<path d="M205.281 218.499C205.281 217.548 205.988 216.914 206.696 216.914C207.404 216.914 208.112 217.706 208.112 218.499C208.112 219.451 207.404 220.085 206.696 220.085C205.988 220.085 205.281 219.451 205.281 218.499Z" fill="#4062C1"/>
<path d="M222.128 218.499C222.128 217.548 222.836 216.914 223.544 216.914C224.393 216.914 224.96 217.706 224.96 218.499C224.96 219.451 224.252 220.085 223.544 220.085C222.694 220.085 222.128 219.451 222.128 218.499Z" fill="#4062C1"/>
<path d="M206.697 217.706V207.875C206.697 202.643 210.52 198.52 215.05 198.52C219.722 198.52 223.403 202.801 223.403 207.875V217.706" stroke="#FFFFF8" stroke-width="0.838266" stroke-miterlimit="10" stroke-linecap="round"/>
<path d="M117.507 212.791H125.435C129.257 212.791 132.513 215.487 133.646 219.451L156.156 296.354C156.723 298.256 158.28 299.525 160.12 299.525H235.579C237.561 299.525 239.26 297.939 239.685 295.719L248.604 235.307H138.46" stroke="#001C45" stroke-width="2.34941" stroke-miterlimit="10" stroke-linecap="round"/>
<path d="M229.916 299.525H176.967C160.545 299.525 147.378 314.43 147.378 332.665H226.518" stroke="#001C45" stroke-width="2.29579" stroke-miterlimit="10" stroke-linecap="round"/>
<path d="M153.891 343.288C153.891 339.483 156.581 336.47 159.978 336.47C163.376 336.47 166.066 339.483 166.066 343.288C166.066 347.094 163.376 350.106 159.978 350.106C156.581 350.106 153.891 347.094 153.891 343.288Z" fill="#001C45"/>
<path d="M159.129 334.727C159.271 337.264 159.129 340.118 157.431 342.813C155.732 345.509 159.696 347.253 163.66 344.558C168.332 341.386 169.748 334.568 169.748 334.568H159.129V334.727Z" fill="#85B8ED"/>
<path d="M158.705 343.289C158.705 342.496 159.271 341.862 159.979 341.862C160.687 341.862 161.253 342.496 161.253 343.289C161.253 344.081 160.687 344.716 159.979 344.716C159.271 344.716 158.705 344.081 158.705 343.289Z" fill="#001C45"/>
<path d="M196.647 343.288C196.647 339.483 199.337 336.47 202.735 336.47C206.133 336.47 208.823 339.483 208.823 343.288C208.823 347.094 206.133 350.106 202.735 350.106C199.337 350.106 196.647 347.094 196.647 343.288Z" fill="#001C45"/>
<path d="M201.884 334.727C202.026 337.264 201.884 340.118 200.185 342.813C198.487 345.509 202.451 347.253 206.415 344.558C211.087 341.386 212.502 334.568 212.502 334.568H201.884V334.727Z" fill="#85B8ED"/>
<path d="M201.46 343.289C201.46 342.496 202.027 341.862 202.734 341.862C203.442 341.862 204.009 342.496 204.009 343.289C204.009 344.081 203.442 344.716 202.734 344.716C202.027 344.716 201.46 344.081 201.46 343.289Z" fill="#001C45"/>
<path d="M144.688 256.872H245.348" stroke="#001C45" stroke-width="1.81527" stroke-miterlimit="10" stroke-linecap="round"/>
<path d="M150.918 278.278H242.233" stroke="#001C45" stroke-width="1.81527" stroke-miterlimit="10" stroke-linecap="round"/>
<path d="M122.745 212.791H110.145" stroke="#EA5E5D" stroke-width="4.11146" stroke-miterlimit="10" stroke-linecap="round"/>
<path d="M93.4382 345.51C93.8629 346.303 93.5798 347.888 90.7483 349.315C87.9168 350.584 82.6786 350.108 80.6965 349.632C78.7145 349.157 77.4403 348.522 74.3257 349.157C71.3527 349.791 66.3976 349.632 64.8403 348.205C64.274 347.571 64.6987 346.144 64.6987 346.144L93.4382 345.51Z" fill="#AAEEED"/>
<path d="M66.2523 335.678C65.8275 338.057 64.1286 343.448 64.6949 346.144C66.8185 348.205 71.3489 348.363 74.7467 347.412C78.1445 346.461 80.5512 348.363 84.7985 348.681C89.0457 348.998 92.585 347.571 93.4345 345.668C94.4255 343.448 87.0637 341.862 81.967 340.118C76.304 338.215 73.4725 335.044 73.4725 335.044L66.2523 335.678Z" fill="#1E4174"/>
<path d="M75.3168 340.118C75.3168 340.118 76.3078 336.946 77.7235 335.995" stroke="#AAEEED" stroke-width="0.55393" stroke-miterlimit="10" stroke-linecap="round"/>
<path d="M79.139 341.863C79.139 341.863 80.13 338.692 81.5457 337.74" stroke="#AAEEED" stroke-width="0.55393" stroke-miterlimit="10" stroke-linecap="round"/>
<path d="M82.9609 343.447C82.9609 343.447 83.9519 340.276 85.3676 339.325" stroke="#AAEEED" stroke-width="0.55393" stroke-miterlimit="10" stroke-linecap="round"/>
<path d="M66.2573 326.323V335.678C66.2573 335.678 67.2483 335.996 67.6731 336.63C68.0978 337.106 68.6641 338.85 69.2304 339.008C71.9203 339.167 73.4776 335.203 73.4776 335.203L74.4686 326.799L66.2573 326.323Z" fill="#FF9A8D"/>
<path d="M25.4822 347.57C25.0574 348.363 23.6417 348.68 21.2349 346.302C18.9697 343.923 17.1293 338.532 16.7046 336.312C16.1383 334.092 16.1383 332.507 14.2978 329.811C12.4573 327.116 10.6169 321.883 11.0416 319.822C11.3247 319.029 12.5989 318.712 12.5989 318.712L25.4822 347.57Z" fill="#AAEEED"/>
<path d="M21.8012 315.857C19.6776 316.491 14.5809 317.126 12.5989 318.711C11.891 321.724 13.7314 326.481 15.9966 329.494C18.2618 332.506 17.6955 335.836 19.2528 340.276C20.8101 344.716 23.3585 347.57 25.3405 347.728C27.4641 347.728 25.6237 339.642 24.9158 333.775C24.0664 327.274 25.3405 322.993 25.3405 322.993L21.8012 315.857Z" fill="#1E4174"/>
<path d="M22.0853 326.799C22.0853 326.799 25.0583 326.481 26.4741 327.433" stroke="#AAEEED" stroke-width="0.55393" stroke-miterlimit="10" stroke-linecap="round"/>
<path d="M22.3668 331.396C22.3668 331.396 25.3398 331.079 26.7556 332.031" stroke="#AAEEED" stroke-width="0.55393" stroke-miterlimit="10" stroke-linecap="round"/>
<path d="M22.5098 335.995C22.5098 335.995 25.4829 335.678 26.8986 336.629" stroke="#AAEEED" stroke-width="0.55393" stroke-miterlimit="10" stroke-linecap="round"/>
<path d="M26.4734 310.467L21.9431 315.699C21.9431 315.699 22.0846 316.809 21.8015 317.443C21.5184 318.078 20.3858 319.346 20.6689 320.139C21.6599 322.834 25.624 322.834 25.624 322.834L32.278 316.968L26.4734 310.467Z" fill="#FF9A8D"/>
<path d="M82.3941 194.081C73.0502 194.081 66.2546 194.874 66.2546 194.874C63.2816 196.301 58.1849 203.912 56.6276 208.669C55.0703 213.426 55.7781 221.513 56.486 225.635C60.8748 248.627 68.0951 261.946 69.794 270.984C70.785 276.534 65.8299 273.521 65.8299 287.633C65.8299 300.319 66.2546 327.274 66.2546 327.274C66.2546 327.274 69.794 329.494 74.3243 328.067C74.3243 328.067 81.2615 283.511 82.1109 278.437C83.3851 270.192 83.8098 266.703 83.9514 252.432C84.093 232.295 82.3941 194.081 82.3941 194.081Z" fill="#1E4174"/>
<path d="M32.1364 317.125C32.1364 317.125 60.1681 285.253 62.2917 282.558C64.4153 279.862 73.1929 227.219 73.7592 223.255C73.7592 223.255 82.5368 213.266 82.8199 204.862L54.222 188.847C52.9478 193.921 51.9568 194.08 51.2489 207.399C50.8242 214.217 49.55 242.124 48.559 275.264C48.559 275.264 45.586 277.008 41.1972 281.924C37.5162 285.888 26.4734 310.465 26.4734 310.465C26.4734 310.465 27.7476 315.38 32.1364 317.125Z" fill="#85B8ED"/>
<path d="M51.2489 207.559C50.8242 214.377 49.55 242.284 48.559 275.424C48.559 275.424 45.586 277.168 41.1972 282.084C37.5162 286.048 26.4734 310.625 26.4734 310.625C26.4734 310.625 26.7566 311.893 27.606 313.321C30.296 307.137 37.5162 292.232 40.914 286.841C45.3028 280.181 50.3995 278.12 51.2489 277.327C52.0984 276.534 51.6736 273.68 51.9568 267.179C52.2399 260.836 55.6377 205.656 55.6377 205.656L51.9568 199.314C51.6736 201.375 51.5321 203.912 51.2489 207.559Z" fill="#4E7EAC"/>
<path d="M80.8372 211.999C80.8372 211.999 75.3158 217.707 66.2551 217.707C57.1944 217.707 50.9651 213.267 50.9651 213.267L51.2482 207.559L80.8372 211.999Z" fill="#4E7EAC"/>
<path d="M74.7494 188.69C70.6438 197.569 63.1403 202.961 61.1583 208.827C59.1762 214.694 58.6099 225.794 56.9111 247.358C55.3537 267.971 54.6459 274.155 54.5043 278.278C52.6638 280.815 47.7087 282.559 41.3379 292.39C35.1087 301.904 27.0389 317.126 27.0389 317.126" stroke="#274D79" stroke-width="0.55393" stroke-miterlimit="10"/>
<path d="M69.7937 212.158C69.7937 212.158 69.0858 225.477 58.8925 224.843" stroke="#274D79" stroke-width="0.55393" stroke-miterlimit="10"/>
<path d="M27.7423 306.185C28.3086 309.674 31.9895 313.162 36.3783 315.065" stroke="#274D79" stroke-width="0.55393" stroke-miterlimit="10"/>
<path d="M81.6874 140.328C82.2536 141.121 82.5368 142.389 81.4042 146.671L68.0963 134.144L81.6874 140.328Z" fill="#03AA99"/>
<path d="M92.7299 116.702C93.013 117.971 94.7119 123.203 95.2782 124.789C95.8445 126.375 92.1636 125.582 92.1636 125.582L92.7299 116.702Z" fill="#BA5964"/>
<path d="M70.7867 134.144L80.4137 143.975L83.9531 133.827L74.4676 122.569L70.7867 134.144Z" fill="#FF9A8D"/>
<path d="M82.396 138.267C82.396 138.267 73.0521 130.18 74.4679 122.569L83.9533 133.827L82.396 138.267Z" fill="#BA5964"/>
<path d="M74.4678 122.569C74.4678 122.569 74.6094 124.313 75.0341 125.581C75.3173 126.85 82.8207 133.51 85.0859 134.461C87.2095 135.412 90.3241 135.888 91.8814 127.326C93.4388 118.763 93.2972 110.835 89.1915 105.603C85.0859 100.211 77.1577 102.114 72.7689 106.554C68.3801 110.994 68.9464 122.569 74.4678 122.569Z" fill="#FF9A8D"/>
<path d="M74.4672 122.569L73.0515 127.009C73.0515 127.009 71.4942 126.216 70.0784 122.569C68.5211 118.605 65.6896 111.469 66.9638 108.14C67.9548 105.603 70.3616 104.175 72.7684 103.541C73.6178 103.383 73.901 103.541 74.1841 102.748C75.0335 100.846 75.7414 99.2601 77.4403 98.1501C78.856 97.1987 79.9886 96.8816 81.6875 96.723C83.3864 96.5645 85.3685 97.1987 87.2089 97.5158C90.8898 98.1501 94.7123 98.1501 98.3933 97.5158C98.5348 97.5158 98.6764 97.5158 98.818 97.5158C98.9596 97.6744 98.9596 97.833 98.9596 97.9915C98.6764 101.48 96.4112 103.383 93.5798 104.493C93.5798 104.493 97.9685 108.932 94.146 110.201C90.3235 111.311 81.2628 108.14 81.2628 108.14C81.2628 108.14 85.3685 111.469 83.6696 112.579C81.9707 113.531 76.3077 111.152 76.3077 111.152L76.1661 114.641C76.1661 114.641 74.0425 113.055 72.2021 114.324C69.9369 116.385 70.9279 122.727 74.4672 122.569Z" fill="#001C45"/>
<path d="M75.4579 93.0762C75.4579 93.0762 70.9275 99.1016 75.0331 105.444C75.0331 105.444 69.7949 103.541 70.078 97.5159" stroke="#001C45" stroke-width="0.830895" stroke-miterlimit="10" stroke-linecap="round"/>
<path d="M80.4132 145.72C80.4132 145.72 81.8289 142.073 81.1211 141.122C79.139 137.95 72.6266 128.437 71.7772 129.229C70.9277 130.181 68.0963 134.303 68.0963 134.303L80.4132 145.72Z" fill="#3ED9C7"/>
<path d="M81.4044 146.671C82.2538 150.952 82.1123 157.929 82.6786 172.834C82.9617 182.506 83.8111 210.255 83.8111 210.255C83.8111 210.255 77.2987 215.012 66.256 214.06C55.7795 213.109 51.1075 207.242 51.1075 207.242C51.1075 207.242 52.2401 168.077 55.6379 152.697C60.7346 136.84 67.9549 133.986 67.9549 133.986L81.4044 146.671Z" fill="#3ED9C7"/>
<path d="M83.3871 191.862L60.8768 156.027C61.5847 161.893 72.9106 193.765 72.9106 193.765L74.7511 193.606C74.7511 193.606 77.0163 199.473 78.0073 201.217C78.7152 202.327 81.9714 203.437 83.8118 204.071C83.6703 200.583 83.5287 196.302 83.3871 191.862Z" fill="#03AA99"/>
<path d="M68.2383 134.144L80.4137 145.561L81.5463 146.512C81.8295 147.305 81.971 147.939 81.8295 148.573L68.2383 134.144Z" fill="#03AA99"/>
<path d="M88.483 117.177C88.483 116.543 88.0582 116.067 87.4919 116.226C86.9256 116.226 86.5009 116.701 86.6425 117.335C86.6425 117.97 87.0672 118.445 87.6335 118.287C88.1998 118.287 88.6245 117.811 88.483 117.177Z" fill="#001C45"/>
<path d="M89.3325 114.323L84.9437 115.909C84.9437 115.909 85.0852 114.165 86.501 113.689C88.3415 113.055 89.3325 114.323 89.3325 114.323Z" fill="#001C45"/>
<path d="M72.9094 116.067C73.4757 115.75 74.3252 115.908 74.8915 116.384C75.033 116.543 74.7499 116.86 74.6083 116.86C73.6173 116.384 72.3431 116.384 71.9184 117.652C71.9184 116.86 72.3431 116.384 72.9094 116.067Z" fill="#BA5964"/>
<path d="M73.4731 116.227C73.6147 116.227 73.8979 116.544 73.7563 116.544C73.6147 116.702 73.3315 116.861 73.19 117.019C72.9068 117.495 72.9068 117.812 72.9068 118.288C73.0484 119.398 73.6147 120.191 74.4642 120.508C73.6147 120.825 72.6237 119.715 72.4821 118.922C72.3405 118.129 72.4821 116.702 73.4731 116.227Z" fill="#BA5964"/>
<path d="M60.4522 152.854C59.3196 145.878 71.2118 141.438 74.468 150.317C77.7242 159.038 85.9355 189.007 85.9355 189.007C85.9355 189.007 110.145 206.132 112.693 205.814C115.949 205.497 124.019 215.328 123.028 216.914C122.037 218.5 117.931 219.768 115.1 218.817C112.693 218.024 110.428 213.267 109.437 212.474C104.765 210.73 82.2546 202.326 79.2815 199.472C76.3085 196.618 61.16 157.453 60.4522 152.854Z" fill="#FF9A8D"/>
<path d="M73.6178 146.988C74.4672 149.049 76.3077 153.33 78.0066 160.149C79.4223 165.381 85.3685 186.946 85.3685 186.946C85.3685 186.946 81.4044 192.337 75.7414 192.971C75.7414 192.971 71.211 182.665 68.5211 176.322C65.8312 169.98 61.1593 157.295 60.0267 153.648C58.8941 149.842 62.575 143.341 64.8402 142.865C67.1054 142.39 72.0605 143.182 73.6178 146.988Z" fill="#3ED9C7"/>
<path d="M494.943 339.959C494.377 340.593 494.377 342.337 496.925 344.398C499.473 346.46 504.712 347.094 506.835 347.253C508.959 347.253 510.375 346.935 513.206 348.363C516.037 349.79 521.134 350.741 522.833 349.631C523.541 349.155 523.399 347.57 523.399 347.57L494.943 339.959Z" fill="#AAEEED"/>
<path d="M523.967 336.794C523.967 339.173 524.533 345.198 523.542 347.735C520.994 349.162 516.463 348.211 513.207 346.467C509.951 344.722 507.261 345.991 502.872 345.198C498.625 344.405 495.369 342.185 494.944 340.124C494.378 337.746 502.164 337.904 507.402 337.429C513.349 336.953 516.888 334.574 516.888 334.574L523.967 336.794Z" fill="#1E4174"/>
<path d="M514.198 339.007C514.198 339.007 513.773 335.519 512.641 334.25" stroke="#AAEEED" stroke-width="0.566753" stroke-miterlimit="10" stroke-linecap="round"/>
<path d="M510.091 339.8C510.091 339.8 509.667 336.312 508.534 335.043" stroke="#AAEEED" stroke-width="0.566753" stroke-miterlimit="10" stroke-linecap="round"/>
<path d="M505.845 340.592C505.845 340.592 505.421 337.104 504.288 335.835" stroke="#AAEEED" stroke-width="0.566753" stroke-miterlimit="10" stroke-linecap="round"/>
<path d="M525.523 328.225L523.966 336.628C523.966 336.628 522.975 336.787 522.409 337.104C521.842 337.58 520.993 339.165 520.285 339.007C517.595 338.531 516.746 334.091 516.746 334.091L517.878 311.575L525.523 328.225Z" fill="#FF9A8D"/>
<path d="M561.199 348.679C561.341 349.63 562.473 350.74 565.446 349.789C568.561 348.838 572.383 344.874 573.799 343.129C575.215 341.385 575.923 339.958 578.754 338.372C581.586 336.787 585.55 333.14 585.975 330.92C585.975 329.969 584.984 329.176 584.984 329.176L561.199 348.679Z" fill="#AAEEED"/>
<path d="M577.905 321.724C579.462 323.31 583.992 326.639 584.983 329.176C584.417 332.348 580.736 335.519 577.338 337.104C574.082 338.69 573.091 342.02 569.835 345.191C566.579 348.362 562.898 349.631 561.199 348.68C559.217 347.57 564.314 341.069 567.428 336.312C570.968 330.921 571.534 326.322 571.534 326.322L577.905 321.724Z" fill="#1E4174"/>
<path d="M573.092 331.554C573.092 331.554 570.543 329.652 568.844 329.81" stroke="#AAEEED" stroke-width="0.566753" stroke-miterlimit="10" stroke-linecap="round"/>
<path d="M570.968 335.678C570.968 335.678 568.419 333.775 566.72 333.934" stroke="#AAEEED" stroke-width="0.566753" stroke-miterlimit="10" stroke-linecap="round"/>
<path d="M568.844 339.642C568.844 339.642 566.295 337.739 564.596 337.898" stroke="#AAEEED" stroke-width="0.566753" stroke-miterlimit="10" stroke-linecap="round"/>
<path d="M575.782 316.015L578.047 321.723C578.047 321.723 577.48 322.675 577.48 323.309C577.48 323.943 577.905 325.846 577.48 326.322C575.357 328.224 571.959 326.163 571.959 326.163L568.42 317.284L575.782 316.015Z" fill="#FF9A8D"/>
<path d="M524.815 194.556C534.017 192.178 542.087 186.628 542.087 186.628C545.343 187.262 550.581 197.569 552.988 202.009C555.536 206.448 546.758 220.243 546.192 222.939C542.653 241.015 539.538 253.7 537.273 261.787C535.716 267.336 533.45 274.155 533.167 276.375C535.433 284.303 525.664 328.859 525.664 328.859C525.664 328.859 520.143 330.762 517.028 326.639C517.028 326.639 518.868 278.436 519.01 273.045C519.435 255.603 521.7 243.076 522.125 235.624C523.823 204.863 524.815 194.556 524.815 194.556Z" fill="#1E4174"/>
<path d="M569.127 320.613C569.127 320.613 547.466 280.021 545.626 276.215C544.068 272.885 536.706 223.097 536.14 218.974C536.14 218.974 525.239 203.435 524.956 195.031L545.201 188.688C546.475 193.921 552.987 193.921 557.943 206.448C562.331 217.388 561.057 240.539 558.792 270.507C558.792 270.507 562.473 272.727 564.455 278.752C567.003 286.998 576.064 316.966 576.064 316.966C576.064 316.966 573.94 320.771 569.127 320.613Z" fill="#85B8ED"/>
<path d="M576.064 316.966C576.064 316.966 567.003 286.998 564.455 278.752C562.615 272.727 558.792 270.507 558.792 270.507C561.057 240.697 562.19 217.388 557.943 206.448C552.987 193.921 546.475 193.921 545.201 188.688L524.956 195.031C525.097 198.202 526.655 202.325 528.637 206.289C532.318 205.813 542.086 204.386 547.608 201.215C547.608 201.215 552.988 209.302 554.545 224.365C556.102 239.429 556.244 265.592 555.961 270.824C555.819 273.044 558.509 273.044 562.048 280.814C564.88 287.156 571.817 311.099 574.507 318.869C575.498 317.917 576.064 316.966 576.064 316.966Z" fill="#4E7EAC"/>
<path d="M538.974 193.287C545.203 206.29 550.441 215.169 551.291 235.624C552.14 256.078 553.556 273.52 553.556 273.52C553.981 276.216 557.945 277.643 561.342 287.157C565.023 297.622 573.801 322.833 573.801 322.833" stroke="#274D79" stroke-width="0.55393" stroke-miterlimit="10"/>
<path d="M547.184 211.839C544.211 213.267 540.813 212.791 538.124 207.875C535.575 202.801 532.885 193.922 532.885 193.922" stroke="#274D79" stroke-width="0.55393" stroke-miterlimit="10"/>
<path d="M564.599 316.966C564.599 316.966 573.376 317.759 576.066 310.94" stroke="#274D79" stroke-width="0.55393" stroke-miterlimit="10"/>
<path d="M545.201 139.693C545.201 139.693 546.334 140.645 547.325 140.645C549.024 141.438 553.13 144.767 553.979 146.67C556.244 150.159 555.961 157.77 552.988 167.283C551.572 172.04 544.777 181.713 549.873 194.239C549.873 194.239 536.565 202.326 524.248 195.508C524.107 188.689 525.523 184.567 525.664 176.956C523.965 174.894 522.266 170.93 522.125 168.552C521.559 159.197 529.911 156.501 536.282 146.036C538.123 143.182 539.397 143.34 541.945 141.12C543.644 139.693 545.201 139.693 545.201 139.693Z" fill="#3ED9C7"/>
<path d="M553.13 167.284C553.13 167.125 553.13 167.125 553.271 166.966L552.422 163.32L548.458 152.696L544.352 153.489C543.927 159.355 544.494 169.503 546.051 176.956C546.617 179.81 547.467 182.664 548.174 185.043C548.174 176.956 551.997 170.772 553.13 167.284Z" fill="#03AA99"/>
<path d="M536.424 145.877C536.424 147.304 534.159 150.317 534.725 152.378C535.292 154.44 537.982 152.854 540.105 150.476C542.229 148.097 544.636 142.547 547.467 140.645C547.467 140.645 546.334 139.852 546.051 139.218L536.424 145.877Z" fill="#FF9A8D"/>
<path d="M541.238 104.81C541.238 104.81 538.69 98.7843 530.337 100.211C521.984 101.638 520.852 112.262 521.418 115.909C522.409 121.3 526.656 123.996 526.656 123.996L541.238 104.81Z" fill="#001C45"/>
<path d="M540.814 129.704L544.495 133.351L546.052 139.376C546.052 139.376 543.787 141.12 542.938 142.547C541.805 144.292 539.398 148.731 536.567 149.049C536.567 149.049 536.85 145.084 536.425 143.023C536 140.962 534.726 136.681 534.726 136.681L540.814 129.704Z" fill="#FF9A8D"/>
<path d="M540.814 129.704C540.814 129.704 541.38 132.241 541.239 133.985C541.097 135.729 539.54 138.425 536 141.279C535.434 139.218 534.726 136.839 534.726 136.839L540.814 129.704Z" fill="#BA5964"/>
<path d="M525.523 121.934C524.816 124.629 521.984 128.593 522.692 129.228C523.258 129.862 525.523 129.703 525.523 129.703C525.523 129.703 527.222 127.801 526.656 125.105C526.09 122.41 525.523 121.934 525.523 121.934Z" fill="#BA5964"/>
<path d="M531.611 104.809C528.214 105.126 524.816 110.359 524.957 115.116C524.957 119.873 525.948 122.568 525.807 125.898C525.524 129.228 525.524 132.558 526.798 136.046C527.647 138.425 529.771 138.9 532.744 138.107C535.434 137.315 539.115 134.461 539.964 133.509C540.814 132.558 540.955 129.387 540.955 129.387C540.955 129.387 544.919 128.752 546.76 124.63C548.459 120.824 548.176 103.224 531.611 104.809Z" fill="#FF9A8D"/>
<path d="M540.814 129.704C540.814 129.704 544.495 128.118 544.07 123.52C543.787 118.922 538.124 118.763 538.407 122.727C538.407 123.044 536.283 121.934 536.142 121.776C535.292 121.142 534.301 120.349 533.593 119.556C531.894 117.97 530.337 116.068 529.346 114.006C527.93 111.152 527.223 107.664 527.789 104.334C528.072 102.59 528.497 102.273 529.912 101.638C531.328 101.004 532.886 100.687 534.443 101.004C538.973 101.638 541.38 104.651 541.38 104.651C541.38 104.651 545.627 102.748 548.742 105.444C551.856 108.139 554.122 115.433 551.432 122.727C548.742 130.18 544.636 133.034 544.636 133.034L540.814 129.704Z" fill="#001C45"/>
<path d="M541.239 104.81C541.239 104.81 543.646 103.066 547.327 104.017C551.007 104.968 554.122 110.36 554.264 117.971C554.405 125.582 553.697 132.717 551.432 135.413C549.167 138.108 544.92 141.279 540.248 140.645C540.248 140.645 542.938 134.937 540.673 129.546C540.673 129.546 543.221 131.29 545.486 127.802C547.893 124.472 541.239 104.81 541.239 104.81Z" fill="#001C45"/>
<path d="M528.497 123.203C528.497 122.569 528.922 122.093 529.488 122.093C530.054 122.093 530.479 122.569 530.479 123.203C530.479 123.837 530.054 124.313 529.488 124.313C528.78 124.313 528.355 123.837 528.497 123.203Z" fill="#001C45"/>
<path d="M527.647 120.349L532.177 121.935C532.177 121.935 532.036 120.191 530.478 119.715C528.638 119.081 527.647 120.349 527.647 120.349Z" fill="#001C45"/>
<path d="M541.805 122.569C541.239 122.252 540.247 122.41 539.823 122.886C539.681 123.044 539.964 123.362 540.106 123.362C541.097 122.886 542.371 122.886 542.937 124.154C542.937 124.154 543.079 124.154 542.937 124.154C542.796 123.362 542.513 122.886 541.805 122.569Z" fill="#BA5964"/>
<path d="M541.38 122.727C541.239 122.727 540.955 123.044 541.097 123.044C541.239 123.203 541.522 123.362 541.663 123.52C541.946 123.996 541.946 124.313 541.946 124.789C541.805 125.899 541.239 126.691 540.248 127.008C541.097 127.326 542.088 126.216 542.371 125.423C542.371 124.63 542.371 123.203 541.38 122.727Z" fill="#BA5964"/>
<path d="M517.312 198.045C518.586 197.886 519.294 197.727 518.586 197.093C517.453 195.983 516.321 195.349 516.179 194.08C516.037 192.495 517.312 193.605 518.161 194.08C520.143 195.19 522.691 195.666 524.249 197.569C528.921 196.142 541.238 190.275 549.732 185.359C549.732 185.359 544.919 163.319 544.494 157.452C543.928 151.903 544.635 146.194 550.157 144.767C552.847 144.133 554.546 147.463 555.537 154.598C556.528 161.734 559.218 186.945 558.934 189.641C558.651 192.336 555.961 194.398 546.193 197.886C540.671 199.789 524.957 204.228 524.957 204.228C524.957 204.228 523.399 205.18 520.993 205.814" fill="#FF9A8D"/>
<path d="M508.393 216.596V206.765C508.393 201.533 512.215 197.41 516.746 197.41C521.418 197.41 525.099 201.691 525.099 206.765V216.596" stroke="#FFFFF8" stroke-width="0.838266" stroke-miterlimit="10" stroke-linecap="round"/>
<path d="M527.647 211.839H491.97L487.864 267.654H523.541L527.647 211.839Z" fill="#EA5E5D"/>
<path d="M534.018 211.839H527.647L523.541 267.654H529.062H532.602H538.123L534.018 211.839Z" fill="#D34A4A"/>
<path d="M523.541 267.654L530.903 260.36L538.123 267.654H523.541Z" fill="#A52F2F"/>
<path d="M499.898 217.388C499.898 216.437 500.606 215.803 501.314 215.803C502.163 215.803 502.729 216.596 502.729 217.388C502.729 218.34 502.021 218.974 501.314 218.974C500.606 218.974 499.898 218.34 499.898 217.388Z" fill="#A52F2F"/>
<path d="M516.745 217.388C516.745 216.437 517.453 215.803 518.161 215.803C519.01 215.803 519.577 216.596 519.577 217.388C519.577 218.34 518.869 218.974 518.161 218.974C517.453 218.974 516.745 218.34 516.745 217.388Z" fill="#A52F2F"/>
<path d="M501.456 216.596V206.765C501.456 201.533 505.278 197.41 509.809 197.41C514.48 197.41 518.161 201.691 518.161 206.765V216.596" stroke="#FFFFF8" stroke-width="0.838266" stroke-miterlimit="10" stroke-linecap="round"/>
<path d="M520.71 205.973C518.587 206.449 515.897 206.766 512.782 205.973C512.216 205.815 511.65 205.656 511.083 205.498C508.535 204.546 505.42 201.533 506.836 198.204C507.119 197.411 507.686 196.459 508.393 196.142C509.385 195.667 510.517 196.142 511.508 196.618C512.499 197.094 513.49 197.569 514.623 197.887C515.472 198.045 516.605 198.045 517.313 198.204" fill="#FF9A8D"/>
</svg>
